<svg width="40" height="40" viewBox="0 0 40 40" fill="none" xmlns="http://www.w3.org/2000/svg">
<path fill-rule="evenodd" clip-rule="evenodd" d="M16.4981 4.7852L16.3365 4.71241C16.1948 4.65352 16.0486 4.60597 15.8993 4.57033C14.9997 4.34334 14.0243 4.56541 13.2957 5.17213C11.4322 6.68825 10.2061 8.87057 9.88079 11.2647C9.46738 14.0248 10.1664 17.7965 11.5149 21.4566L11.7595 22.1011C13.4341 26.3871 15.97 30.4272 18.6136 32.3923C20.5147 33.8468 22.9231 34.5289 25.331 34.287C26.2525 34.2104 27.1056 33.6806 27.5964 32.8655C28.0248 32.1669 28.1365 31.3067 27.8987 30.5116L27.8719 30.43L27.8247 30.2983L26.436 26.9312C25.9857 25.8212 24.8923 25.0946 23.6838 25.1069C23.1543 25.1114 22.6271 25.1985 22.1228 25.3645L21.8727 25.4541C20.4864 26.0262 18.4013 24.1333 16.9785 20.6929C15.5955 17.3259 15.6992 14.5694 16.9633 13.9258L17.0556 13.8834C17.6638 13.6158 18.1839 13.2624 18.6278 12.8247C19.4096 12.0615 19.7011 10.9198 19.3816 9.87153L19.3557 9.79378L19.3097 9.66658L17.9225 6.30369C17.6536 5.64199 17.1441 5.10002 16.4981 4.7852Z" fill="#545151"/>
</svg>
