<svg width="53" height="80" viewBox="0 0 53 80" fill="none" xmlns="http://www.w3.org/2000/svg">
<path d="M51.8176 37.61C38.1576 41.43 30.5176 25 30.5176 25C30.5176 25 22.8976 41.43 9.20763 37.61C9.20763 37.61 5.38763 70.93 30.5176 79.67C55.6376 70.93 51.8176 37.61 51.8176 37.61Z" fill="#764324"/>
<path d="M30.5174 74.8002C14.0074 68.5102 13.0174 48.8002 13.2274 41.6202C13.7674 41.6702 14.3174 41.7002 14.8474 41.7002C22.5374 41.7002 27.7774 35.9502 30.5174 31.9102C33.2474 35.9102 38.5174 41.7002 46.1774 41.7002C46.7074 41.7002 47.2574 41.7002 47.7974 41.6202C48.0074 48.7802 46.9874 68.5202 30.5174 74.8002Z" fill="#FFA229"/>
<path d="M30.7073 53.3501H14.1973C15.8973 61.5001 20.0873 70.8301 30.5173 74.8001L30.7073 74.7201V53.3501Z" fill="#FCD751"/>
<path d="M46.2176 41.7002C46.7376 41.7002 47.2176 41.7002 47.8076 41.6202C47.921 45.6449 47.5856 49.6697 46.8076 53.6202H30.7076V32.1902C30.7776 32.1002 30.4476 32.0002 30.5176 31.9102C33.1876 36.0002 38.6976 41.7002 46.2176 41.7002Z" fill="#FCD751"/>
<path d="M20.6526 17.2859C21.3624 16.1093 21.7468 14.7653 21.7664 13.3915C21.786 12.0177 21.4402 10.6633 20.7642 9.46694C20.0882 8.27057 19.1064 7.27515 17.9192 6.58252C16.732 5.88989 15.3821 5.5249 14.0074 5.5249C12.6328 5.5249 11.2828 5.88989 10.0956 6.58252C8.90846 7.27515 7.92666 8.27057 7.2507 9.46694C6.57473 10.6633 6.22886 12.0177 6.24847 13.3915C6.26808 14.7653 6.65247 16.1093 7.3623 17.2859C9.49216 21.0326 9.88973 21.9267 9.91103 23.6723C9.95362 26.234 9.91103 28.2847 9.91103 28.2847H18.1039C18.1039 28.2847 18.1039 26.234 18.1039 23.6723C18.1323 21.9267 18.5582 21.0326 20.6526 17.2859Z" fill="#FCD751"/>
<path d="M14.0075 29.4202H11.0967C11.5297 31.7619 14.0075 31.7619 14.0075 31.7619C14.0075 31.7619 16.4852 31.7619 16.9183 29.4202H14.0075Z" fill="#764324"/>
<path d="M19.2893 25.6095C19.2893 25.9671 19.1472 26.31 18.8942 26.5628C18.6412 26.8157 18.2981 26.9577 17.9404 26.9577H10.0741C9.71637 26.9577 9.37327 26.8157 9.1203 26.5628C8.86734 26.31 8.72522 25.9671 8.72522 25.6095C8.72522 25.2519 8.86734 24.909 9.1203 24.6561C9.37327 24.4033 9.71637 24.2612 10.0741 24.2612H17.9404C18.2981 24.2612 18.6412 24.4033 18.8942 24.6561C19.1472 24.909 19.2893 25.2519 19.2893 25.6095Z" fill="#764324"/>
<path d="M18.8705 25.3471C18.8468 25.654 18.7032 25.9393 18.4707 26.1411C18.2381 26.343 17.9354 26.4452 17.6281 26.4257H10.3866C10.0799 26.4452 9.77801 26.3427 9.54662 26.1407C9.31522 25.9387 9.17311 25.6534 9.15125 25.3471C9.17132 25.0395 9.31266 24.7524 9.54426 24.5489C9.77585 24.3453 10.0788 24.2419 10.3866 24.2614H17.6281C17.9366 24.2419 18.2403 24.3451 18.473 24.5484C18.7057 24.7518 18.8486 25.0389 18.8705 25.3471Z" fill="#764324"/>
<path d="M19.2893 28.2494C19.2893 28.6069 19.1472 28.9499 18.8942 29.2027C18.6412 29.4556 18.2981 29.5976 17.9404 29.5976H10.0741C9.71637 29.5976 9.37327 29.4556 9.1203 29.2027C8.86734 28.9499 8.72522 28.6069 8.72522 28.2494C8.72522 27.8918 8.86734 27.5489 9.1203 27.296C9.37327 27.0432 9.71637 26.9011 10.0741 26.9011H17.9404C18.2981 26.9011 18.6412 27.0432 18.8942 27.296C19.1472 27.5489 19.2893 27.8918 19.2893 28.2494Z" fill="#764324"/>
<path d="M14.1708 0C14.3114 0.00183785 14.4458 0.0584991 14.5452 0.157911C14.6447 0.257322 14.7014 0.391625 14.7032 0.532202V3.62607C14.7014 3.76665 14.6447 3.90095 14.5452 4.00036C14.4458 4.09978 14.3114 4.15644 14.1708 4.15827C14.0301 4.15644 13.8958 4.09978 13.7963 4.00036C13.6968 3.90095 13.6401 3.76665 13.6383 3.62607V0.532202C13.6401 0.391625 13.6968 0.257322 13.7963 0.157911C13.8958 0.0584991 14.0301 0.00183785 14.1708 0Z" fill="#FFA229"/>
<path d="M7.12771 1.83088C7.24759 1.76362 7.38908 1.74601 7.52181 1.78183C7.65454 1.81765 7.76793 1.90404 7.83766 2.02247L9.38535 4.70477C9.45265 4.8246 9.47026 4.96602 9.43443 5.09869C9.39859 5.23135 9.31215 5.34469 9.19366 5.41438C9.07254 5.47921 8.93103 5.49474 8.79872 5.45771C8.66641 5.42068 8.55354 5.33396 8.48371 5.21569L6.92892 2.55468C6.86405 2.43361 6.84852 2.29217 6.88557 2.15993C6.92261 2.02768 7.00937 1.91487 7.12771 1.84507V1.83088Z" fill="#FFA229"/>
<path d="M1.93821 6.93276C2.00925 6.8158 2.12212 6.73021 2.25394 6.69331C2.38576 6.65642 2.52668 6.67099 2.64816 6.73407L5.33177 8.281C5.44757 8.35314 5.53173 8.46644 5.56729 8.59811C5.60286 8.72977 5.5872 8.87002 5.52346 8.9906C5.45129 9.10635 5.33793 9.19046 5.2062 9.22601C5.07447 9.26156 4.93416 9.2459 4.81351 9.1822L2.1299 7.62817C2.01019 7.55965 1.92225 7.44683 1.88506 7.31407C1.84787 7.1813 1.86441 7.03924 1.93111 6.91856L1.93821 6.93276Z" fill="#FFA229"/>
<path d="M0 13.9365C0.00186662 13.7966 0.0587887 13.663 0.158443 13.5647C0.258098 13.4665 0.392467 13.4114 0.532463 13.4114H3.63495C3.77428 13.4114 3.90791 13.4667 4.00644 13.5652C4.10496 13.6637 4.16031 13.7972 4.16031 13.9365C4.16125 14.006 4.14836 14.0751 4.12238 14.1396C4.0964 14.2041 4.05785 14.2629 4.00897 14.3124C3.96009 14.3619 3.90186 14.4012 3.83765 14.428C3.77344 14.4549 3.70454 14.4687 3.63495 14.4687H0.532463C0.391245 14.4687 0.255811 14.4126 0.155955 14.3128C0.0560989 14.213 0 14.0776 0 13.9365Z" fill="#FFA229"/>
<path d="M1.83177 20.9829C1.76804 20.8623 1.75237 20.7221 1.78794 20.5904C1.82351 20.4588 1.90766 20.3454 2.02346 20.2733L4.70708 18.7264C4.8282 18.6615 4.96971 18.646 5.10202 18.683C5.23433 18.7201 5.3472 18.8068 5.41703 18.9251C5.48432 19.0449 5.50194 19.1863 5.4661 19.319C5.43027 19.4516 5.34383 19.565 5.22534 19.6347L2.54172 21.1816C2.42108 21.2453 2.28077 21.261 2.14904 21.2254C2.01731 21.1899 1.90394 21.1057 1.83177 20.99V20.9829Z" fill="#FFA229"/>
<path d="M21.2134 1.83088C21.0935 1.76362 20.952 1.74601 20.8192 1.78183C20.6865 1.81765 20.5731 1.90404 20.5034 2.02247L18.9415 4.70477C18.8742 4.8246 18.8566 4.96602 18.8924 5.09869C18.9283 5.23135 19.0147 5.34469 19.1332 5.41438C19.2543 5.47921 19.3958 5.49474 19.5281 5.45771C19.6605 5.42068 19.7733 5.33396 19.8431 5.21569L21.4121 2.55468C21.477 2.43361 21.4925 2.29217 21.4555 2.15993C21.4184 2.02768 21.3317 1.91487 21.2134 1.84507V1.83088Z" fill="#FFA229"/>
<path d="M26.4031 6.93288C26.3332 6.8146 26.2204 6.72788 26.0881 6.69085C25.9558 6.65383 25.8142 6.66935 25.6931 6.73419L23.0237 8.28112C22.9067 8.35213 22.8211 8.46494 22.7841 8.5967C22.7472 8.72845 22.7618 8.86931 22.8249 8.99072C22.8982 9.10519 23.0116 9.18824 23.1428 9.22367C23.2741 9.2591 23.4139 9.24435 23.5349 9.18232L26.2114 7.62829C26.3311 7.55977 26.419 7.44695 26.4562 7.31419C26.4934 7.18142 26.4769 7.03936 26.4102 6.91868L26.4031 6.93288Z" fill="#FFA229"/>
<path d="M28.341 13.9365C28.3392 13.7966 28.2822 13.6631 28.1826 13.5648C28.0829 13.4665 27.9486 13.4114 27.8086 13.4114H24.7132C24.6436 13.4105 24.5745 13.4234 24.5099 13.4493C24.4454 13.4753 24.3866 13.5138 24.3371 13.5627C24.2876 13.6115 24.2482 13.6698 24.2214 13.7339C24.1945 13.7981 24.1807 13.867 24.1807 13.9365C24.1798 14.0067 24.1929 14.0763 24.2193 14.1413C24.2457 14.2063 24.2849 14.2654 24.3345 14.315C24.3842 14.3646 24.4433 14.4038 24.5083 14.4302C24.5733 14.4566 24.643 14.4697 24.7132 14.4687H27.8086C27.9498 14.4687 28.0852 14.4127 28.1851 14.3129C28.2849 14.213 28.341 14.0777 28.341 13.9365Z" fill="#FFA229"/>
<path d="M26.5097 20.9829C26.5734 20.8623 26.5891 20.7221 26.5535 20.5904C26.5179 20.4588 26.4338 20.3454 26.318 20.2733L23.6344 18.7264C23.5133 18.6615 23.3717 18.646 23.2394 18.683C23.1071 18.7201 22.9943 18.8068 22.9244 18.9251C22.8589 19.0453 22.8423 19.1861 22.878 19.3183C22.9137 19.4504 22.999 19.5637 23.1161 19.6347L25.7997 21.1816C25.9204 21.2453 26.0607 21.261 26.1924 21.2254C26.3241 21.1899 26.4375 21.1057 26.5097 20.99V20.9829Z" fill="#FFA229"/>
<path d="M18.8705 27.9869C18.8623 28.1414 18.8236 28.2927 18.7567 28.4321C18.6897 28.5716 18.5957 28.6963 18.4802 28.7993C18.3646 28.9022 18.2299 28.9812 18.0836 29.0318C17.9374 29.0824 17.7825 29.1035 17.6281 29.0939H10.3866C10.0799 29.1134 9.77801 29.0109 9.54662 28.8089C9.31522 28.6069 9.17311 28.3216 9.15125 28.0153C9.17132 27.7077 9.31266 27.4206 9.54426 27.2171C9.77585 27.0135 10.0788 26.9101 10.3866 26.9296H17.6281C17.9366 26.9101 18.2403 27.0133 18.473 27.2166C18.7057 27.42 18.8486 27.7071 18.8705 28.0153V27.9869Z" fill="#764324"/>
<path d="M20.1839 13.4116C20.1839 14.6354 19.8208 15.8318 19.1406 16.8493C18.4603 17.8669 17.4935 18.66 16.3622 19.1283C15.231 19.5967 13.9863 19.7192 12.7854 19.4805C11.5845 19.2417 10.4814 18.6524 9.61561 17.787C8.74981 16.9216 8.1602 15.8191 7.92132 14.6188C7.68245 13.4185 7.80505 12.1743 8.27362 11.0437C8.74218 9.91301 9.53567 8.94662 10.5537 8.2667C11.5718 7.58678 12.7687 7.22388 13.9931 7.22388C14.8061 7.22388 15.6112 7.38393 16.3622 7.69489C17.1133 8.00585 17.7958 8.46164 18.3707 9.03622C18.9455 9.61081 19.4016 10.2929 19.7127 11.0437C20.0238 11.7944 20.1839 12.599 20.1839 13.4116Z" fill="#FCD751"/>
<path d="M19.1544 13.4115C19.1544 14.429 18.8525 15.4236 18.2869 16.2697C17.7214 17.1157 16.9175 17.7751 15.977 18.1645C15.0365 18.5539 14.0015 18.6557 13.0031 18.4572C12.0046 18.2587 11.0875 17.7688 10.3677 17.0493C9.64783 16.3298 9.15761 15.4131 8.95901 14.4151C8.76041 13.4172 8.86234 12.3828 9.25191 11.4427C9.64149 10.5027 10.3012 9.69917 11.1477 9.13387C11.9941 8.56857 12.9892 8.26685 14.0073 8.26685C15.3724 8.26685 16.6816 8.80887 17.6468 9.77367C18.6121 10.7385 19.1544 12.047 19.1544 13.4115Z" fill="#FFA229"/>
<path d="M18.182 13.4115C18.1792 14.2361 17.932 15.0414 17.4716 15.7257C17.0112 16.41 16.3582 16.9426 15.5952 17.2562C14.8322 17.5699 13.9933 17.6505 13.1844 17.4879C12.3756 17.3253 11.6331 16.9268 11.0507 16.3427C10.4683 15.7586 10.0721 15.0151 9.91219 14.2061C9.75226 13.3971 9.83576 12.5589 10.1521 11.7973C10.4685 11.0357 11.0036 10.3849 11.6897 9.92707C12.3759 9.46922 13.1825 9.22486 14.0075 9.22485C14.5569 9.22485 15.1009 9.33324 15.6083 9.54382C16.1157 9.75439 16.5765 10.063 16.9644 10.452C17.3522 10.8409 17.6594 11.3026 17.8683 11.8104C18.0773 12.3183 18.1839 12.8624 18.182 13.4115Z" fill="#FCD751"/>
<path d="M13.61 16.0511C13.371 16.0471 13.1331 16.0186 12.9 15.966C12.7301 15.9304 12.5655 15.8732 12.4102 15.7957L12.6941 14.9584C12.8092 15.0276 12.9335 15.0801 13.0633 15.1145C13.2457 15.1697 13.4339 15.203 13.6242 15.2138V13.7378C13.4709 13.6707 13.3216 13.5949 13.1769 13.5108C13.0298 13.4325 12.8957 13.3319 12.7793 13.2127C12.6616 13.0917 12.5677 12.9497 12.5024 12.7941C12.4274 12.6119 12.3912 12.4162 12.396 12.2193C12.3833 12.0431 12.4063 11.8663 12.4637 11.6992C12.521 11.5322 12.6115 11.3784 12.7296 11.2471C12.9688 11.0015 13.2841 10.8439 13.6242 10.8001V10.1331H14.3838V10.7646C14.5727 10.7783 14.7602 10.8067 14.9447 10.8498C15.0963 10.8942 15.2456 10.9463 15.3919 11.0059L15.1293 11.8077C15.0278 11.763 14.9234 11.7251 14.8169 11.6942C14.6764 11.6489 14.531 11.6203 14.3838 11.609V12.9715C14.5329 13.0424 14.6891 13.1205 14.8382 13.2056C14.9754 13.2806 15.102 13.3737 15.2145 13.4824C15.3311 13.6046 15.4292 13.7433 15.5055 13.894C15.5834 14.0729 15.6222 14.2665 15.6191 14.4616C15.641 14.8398 15.5193 15.2123 15.2784 15.5048C15.0318 15.766 14.704 15.9361 14.3483 15.9873V16.6969H13.61V16.0511ZM13.326 12.1341C13.3253 12.2044 13.3403 12.2739 13.3698 12.3377C13.3992 12.4016 13.4425 12.458 13.4964 12.5031C13.6308 12.6081 13.7759 12.6985 13.9294 12.7728V11.5877C13.8433 11.5818 13.7568 11.5932 13.6751 11.6212C13.5934 11.6492 13.5181 11.6933 13.4538 11.751C13.3656 11.8587 13.3201 11.9951 13.326 12.1341ZM14.6891 14.5823C14.6931 14.507 14.6784 14.4319 14.6462 14.3638C14.6139 14.2957 14.5653 14.2366 14.5045 14.192C14.3684 14.0821 14.2179 13.9914 14.0572 13.9223V15.1996C14.2341 15.1908 14.4024 15.1206 14.5329 15.0009C14.638 14.8873 14.6941 14.7369 14.6891 14.5823Z" fill="#FFA229"/>
<path d="M51.62 70.31C51.62 72.1513 51.074 73.9513 50.051 75.4824C49.028 77.0134 47.574 78.2067 45.8728 78.9113C44.1716 79.616 42.2997 79.8003 40.4937 79.4411C38.6878 79.0819 37.0289 78.1952 35.7268 76.8932C34.4248 75.5911 33.5381 73.9323 33.1789 72.1263C32.8197 70.3203 33.004 68.4484 33.7087 66.7472C34.4133 65.046 35.6066 63.592 37.1376 62.569C38.6687 61.546 40.4687 61 42.31 61C44.7792 61 47.1472 61.9809 48.8932 63.7268C50.6391 65.4728 51.62 67.8408 51.62 70.31Z" fill="#645033"/>
<path d="M36.3198 65.8799L43.0198 74.6999L48.5498 68.5899L43.0198 71.1499L36.3198 65.8799Z" fill="#FCD751"/>
</svg>
