<svg width="27" height="27" viewBox="0 0 27 27" fill="none" xmlns="http://www.w3.org/2000/svg">
<path fill-rule="evenodd" clip-rule="evenodd" d="M11 3.19019L10.8923 3.14167C10.7978 3.10241 10.7004 3.07071 10.6008 3.04695C10.0011 2.89562 9.35085 3.04367 8.86512 3.44814C7.62278 4.45889 6.80534 5.91377 6.5885 7.50986C6.31289 9.34993 6.77888 11.8644 7.6779 14.3045L7.84099 14.7341C8.95735 17.5915 10.648 20.2848 12.4104 21.5949C13.6777 22.5646 15.2834 23.0193 16.8886 22.8581C17.503 22.807 18.0717 22.4538 18.3989 21.9104C18.6845 21.4446 18.759 20.8712 18.6004 20.3411L18.5826 20.2867L18.5511 20.1989L17.6253 17.9542C17.3251 17.2142 16.5961 16.7298 15.7905 16.738C15.4375 16.741 15.0861 16.7991 14.7499 16.9097L14.5831 16.9695C13.6589 17.3509 12.2688 16.089 11.3203 13.7954C10.3983 11.5506 10.4674 9.71301 11.3102 9.28392L11.3717 9.25568C11.7772 9.07723 12.1239 8.84166 12.4198 8.54987C12.941 8.04107 13.1353 7.27993 12.9224 6.58108L12.9051 6.52925L12.8745 6.44445L11.9497 4.20252C11.7704 3.76139 11.4307 3.40007 11 3.19019Z" fill="#B5BABE"/>
</svg>
