<svg width="23" height="30" viewBox="0 0 23 30" fill="none" xmlns="http://www.w3.org/2000/svg">
<path d="M11.2439 0C8.26223 0.00132505 5.40306 1.21864 3.29469 3.3844C1.18633 5.55016 0.00128993 8.48714 0 11.55C0 16.1625 5.57328 24.3375 8.90751 28.8C9.17955 29.1726 9.53231 29.475 9.93783 29.6833C10.3434 29.8916 10.7905 30 11.2439 30C11.6973 30 12.1445 29.8916 12.55 29.6833C12.9555 29.475 13.3083 29.1726 13.5803 28.8C16.9145 24.35 22.5 16.1625 22.5 11.55C22.4958 8.48589 21.3082 5.54873 19.1978 3.38325C17.0874 1.21778 14.2268 0.000990415 11.2439 0ZM11.2561 15.1375C10.3518 15.1388 9.46754 14.8643 8.71518 14.3491C7.96282 13.8338 7.37623 13.1008 7.02963 12.2429C6.68304 11.3849 6.59203 10.4407 6.76814 9.52957C6.94426 8.61849 7.37957 7.78159 8.01898 7.12479C8.65838 6.46798 9.47312 6.02079 10.3601 5.83988C11.247 5.65897 12.1662 5.75248 13.0014 6.10851C13.8366 6.46455 14.5502 7.06713 15.0518 7.83997C15.5534 8.61281 15.8206 9.52115 15.8194 10.45C15.8181 11.6928 15.3369 12.8843 14.4814 13.7631C13.6259 14.6419 12.466 15.1362 11.2561 15.1375Z" fill="#545151"/>
</svg>
