<svg width="18" height="18" viewBox="0 0 18 18" fill="none" xmlns="http://www.w3.org/2000/svg">
<path d="M9 0C4.04 0 0 4.06667 0 9C0 13.9333 4.04 18 9 18C13.96 18 18 13.9333 18 9C18 4.06667 13.96 0 9 0ZM12.9133 12.1999C12.7867 12.3999 12.5667 12.5332 12.3333 12.5332C12.2133 12.5332 12.0933 12.5335 11.9867 12.4668L9.20003 10.8001C8.5067 10.4001 7.99333 9.46667 7.99333 8.66667V5C7.99333 4.6 8.3 4.26693 8.66667 4.26693C9.03333 4.26693 9.34001 4.6 9.34001 5V8.66667C9.34001 9 9.61331 9.46693 9.89331 9.60026L12.68 11.2669C13.0067 11.4669 13.1133 11.8665 12.9133 12.1999Z" fill="#B5BABE"/>
</svg>
