<svg width="17" height="19" viewBox="0 0 17 19" fill="none" xmlns="http://www.w3.org/2000/svg">
<path d="M-0.000279903 1.84341L0.655707 1L6.87793 9L0.655707 17L-0.000279903 16.1566L5.56596 9L-0.000279903 1.84341Z" fill="white"/>
<mask id="mask0_538_1993" style="mask-type:luminance" maskUnits="userSpaceOnUse" x="-1" y="1" width="8" height="16">
<path d="M-0.000279903 1.84341L0.655707 1L6.87793 9L0.655707 17L-0.000279903 16.1566L5.56596 9L-0.000279903 1.84341Z" fill="white"/>
</mask>
<g mask="url(#mask0_538_1993)">
<rect x="-30.2646" y="-34.7551" width="67.4074" height="88.6667" fill="white"/>
</g>
<path d="M6.87838 1.84341L7.53437 1L13.7566 9L7.53437 17L6.87838 16.1566L12.4446 9L6.87838 1.84341Z" fill="white"/>
<mask id="mask1_538_1993" style="mask-type:luminance" maskUnits="userSpaceOnUse" x="6" y="1" width="8" height="16">
<path d="M6.87838 1.84341L7.53437 1L13.7566 9L7.53437 17L6.87838 16.1566L12.4446 9L6.87838 1.84341Z" fill="white"/>
</mask>
<g mask="url(#mask1_538_1993)">
<rect x="-23.3862" y="-34.7551" width="67.4074" height="88.6667" fill="white"/>
</g>
<line x1="16.5" y1="2.18556e-08" x2="16.5" y2="19" stroke="white"/>
</svg>
