<svg width="15" height="20" viewBox="0 0 15 20" fill="none" xmlns="http://www.w3.org/2000/svg">
<path d="M7.49594 0C5.50815 0.000883364 3.60204 0.812428 2.19646 2.25627C0.790886 3.7001 0.000859955 5.6581 0 7.69999C0 10.775 3.71552 16.225 5.93834 19.2C6.1197 19.4484 6.35487 19.65 6.62522 19.7889C6.89557 19.9277 7.19368 20 7.49594 20C7.7982 20 8.09632 19.9277 8.36667 19.7889C8.63702 19.65 8.87218 19.4484 9.05354 19.2C11.2764 16.2333 15 10.775 15 7.69999C14.9972 5.65726 14.2054 3.69915 12.7985 2.2555C11.3916 0.811855 9.48454 0.000660277 7.49594 0ZM7.50406 10.0917C6.90123 10.0925 6.3117 9.90956 5.81012 9.56604C5.30855 9.22252 4.91749 8.73385 4.68642 8.1619C4.45536 7.58995 4.39468 6.96043 4.51209 6.35305C4.6295 5.74566 4.91972 5.18773 5.34598 4.74986C5.77225 4.31199 6.31541 4.01386 6.9067 3.89325C7.49799 3.77265 8.11083 3.83499 8.66762 4.07234C9.22441 4.3097 9.70013 4.71142 10.0345 5.22664C10.369 5.74187 10.547 6.34743 10.5462 6.96668C10.5454 7.79521 10.2246 8.58955 9.65426 9.17542C9.08393 9.76128 8.31063 10.0908 7.50406 10.0917Z" fill="#B5BABE"/>
</svg>
