<svg width="25" height="21" viewBox="0 0 25 21" fill="none" xmlns="http://www.w3.org/2000/svg">
<path opacity="0.2" d="M22.5295 0.198078C22.8588 0.196373 23.1849 0.264214 23.4862 0.397167C23.7876 0.530119 24.0575 0.725187 24.2783 0.969615C24.5173 1.20279 24.7049 1.48344 24.8289 1.7935C24.953 2.10356 25.0107 2.43615 24.9984 2.76987V17.7377C24.9957 18.3998 24.7378 19.0355 24.2783 19.5122C24.0575 19.7566 23.7876 19.9517 23.4862 20.0847C23.1849 20.2176 22.8588 20.2855 22.5295 20.2837H2.57238C2.24681 20.2851 1.92471 20.217 1.62757 20.0839C1.33044 19.9509 1.0651 19.756 0.849279 19.5122C0.342412 19.0565 0.0371615 18.4183 0.000588416 17.7377V2.76987C-0.00681271 2.43447 0.0556752 2.1012 0.184077 1.79127C0.312479 1.48133 0.503983 1.20151 0.746407 0.969615C0.973474 0.712372 1.25547 0.509472 1.57154 0.375923C1.8876 0.242374 2.22965 0.181593 2.57238 0.198078H22.5295ZM22.5295 5.34166V2.76987L12.4995 8.9936L2.57238 2.76987V5.34166L12.6024 11.5654L22.5295 5.34166Z" fill="black"/>
</svg>
