<svg width="55" height="75" viewBox="0 0 55 75" fill="none" xmlns="http://www.w3.org/2000/svg">
<path d="M37.6682 33.7307H34.1057V38.0004H37.6682V33.7307Z" fill="#FCD751"/>
<path d="M39.3224 34.0509H32.4508L35.8799 29.541L39.3224 34.0509Z" fill="#FCD751"/>
<path d="M6.21908 38.4807H4.698V75H6.21908V38.4807Z" fill="#764324"/>
<path d="M47.128 70.4368H0.895142V71.9578H47.128V70.4368Z" fill="#764324"/>
<path d="M15.4257 58.4551H8.39404V68.2621H15.4257V58.4551Z" fill="#645033"/>
<path d="M22.4974 54.9324H15.4524V68.2752H22.4974V54.9324Z" fill="#FFA229"/>
<path d="M29.5421 48.2744H22.4971V68.262H29.5421V48.2744Z" fill="#764324"/>
<path d="M36.6006 43.3909H29.5555V68.2752H36.6006V43.3909Z" fill="#FFA229"/>
<path d="M43.6589 36.9331H36.6139V68.2621H43.6589V36.9331Z" fill="#645033"/>
<path d="M11.7965 55.266L10.4489 54.332L14.425 48.6346H18.0676L21.8036 41.5496H25.5796L29.2889 36.1324H32.9715L36.5875 29.5277L37.9084 28.0867L39.1226 29.2075L37.8684 30.5684L33.9456 37.7736H30.1562L26.4469 43.1908H22.8043L19.0683 50.2758H15.2923L11.7965 55.266Z" fill="#764324"/>
<path d="M40.2564 31.5691L41.7108 25.1646L35.453 27.1126L40.2564 31.5691Z" fill="#764324"/>
<path d="M52.599 55.2527H47.9156V60.8834H52.599V55.2527Z" fill="#FCD751"/>
<path d="M54.7867 55.6797H45.7402L50.2635 49.7422L54.7867 55.6797Z" fill="#FCD751"/>
<path d="M15.1986 42.4568H10.5153V48.0875H15.1986V42.4568Z" fill="#FCD751"/>
<path d="M17.387 42.8838H8.34058L12.8638 36.9463L17.387 42.8838Z" fill="#FCD751"/>
<path d="M25.366 24.0571H22.4039V27.6063H25.366V24.0571Z" fill="#FCD751"/>
<path d="M26.74 24.324H21.0293L23.8847 20.5747L26.74 24.324Z" fill="#FCD751"/>
<path d="M20.6693 4.00285C20.6693 4.49653 20.3224 4.88348 19.9621 4.85679L16.4529 4.68333C16.0927 4.68333 15.8125 4.24302 15.8392 3.74934L16.0126 0.867284C15.9933 0.663067 16.0532 0.45924 16.1798 0.29786C16.3064 0.136481 16.4902 0.0298608 16.6931 0L20.1889 0.173457C20.5625 0.173457 20.8294 0.61377 20.8027 1.10745L20.6693 4.00285Z" fill="#645033"/>
<path d="M19.2683 31.4224C19.2683 30.9154 19.0147 30.5017 18.6545 30.4884L15.1453 30.3149C14.7851 30.3149 14.4648 30.6752 14.4382 31.1689L14.2914 33.9976C14.2914 34.4912 14.5449 34.9049 14.9185 34.9316L18.4143 35.105C18.7879 35.105 19.0948 34.7314 19.1215 34.2377L19.2683 31.4224Z" fill="#645033"/>
<path d="M13.4374 4.20302C13.5031 4.28846 13.5505 4.38647 13.5767 4.49098C13.603 4.59549 13.6075 4.70427 13.59 4.81059C13.5724 4.91691 13.5333 5.01851 13.4749 5.10908C13.4166 5.19966 13.3402 5.27729 13.2506 5.33716L10.1284 6.89827C9.93192 6.95843 9.71983 6.94072 9.53603 6.84882C9.35223 6.75692 9.21081 6.59787 9.14104 6.40459L7.80676 3.88279C7.69183 3.71004 7.64846 3.49941 7.6858 3.2953C7.72314 3.0912 7.83826 2.90956 8.0069 2.78868L11.1558 1.18754C11.476 1.01408 11.9297 1.18754 12.1565 1.68122L13.4374 4.20302Z" fill="#645033"/>
<path d="M25.9662 28.7003C25.7394 28.26 25.2991 28.0332 24.9789 28.2066L21.8566 29.7944C21.6892 29.9197 21.5764 30.1046 21.5416 30.3108C21.5068 30.517 21.5527 30.7286 21.6698 30.9019L23.0041 33.4237C23.2309 33.864 23.6846 34.0908 24.0048 33.9174L27.127 32.3162C27.2964 32.1955 27.4111 32.0127 27.4461 31.8077C27.4811 31.6027 27.4335 31.3922 27.3138 31.2221L25.9662 28.7003Z" fill="#645033"/>
<path d="M7.3135 8.00578C7.50243 8.09317 7.6499 8.25071 7.72463 8.445C7.79936 8.63929 7.79547 8.85505 7.71379 9.04652L5.80576 12.0086C5.66325 12.1615 5.46737 12.2538 5.25871 12.2662C5.05005 12.2786 4.84461 12.2103 4.68496 12.0753L2.32328 10.5676C2.13663 10.4777 1.9913 10.3199 1.91692 10.1265C1.84254 9.93317 1.84472 9.7187 1.923 9.52686L3.83102 6.5781C3.98004 6.43538 4.17841 6.35571 4.38475 6.35571C4.59109 6.35571 4.78946 6.43538 4.93848 6.5781L7.3135 8.00578Z" fill="#645033"/>
<path d="M30.4232 22.9897C30.2606 22.8595 30.0549 22.7954 29.8471 22.8102C29.6393 22.825 29.4448 22.9177 29.3024 23.0697L27.4077 26.0051C27.3245 26.1969 27.3183 26.4134 27.3903 26.6096C27.4623 26.8058 27.6071 26.9668 27.7947 27.0592L30.1697 28.5937C30.3271 28.7277 30.5304 28.7957 30.7368 28.7832C30.9433 28.7708 31.1369 28.679 31.2771 28.5269L33.1852 25.5782C33.2668 25.3867 33.2707 25.171 33.196 24.9767C33.1213 24.7824 32.9738 24.6248 32.7849 24.5374L30.4232 22.9897Z" fill="#645033"/>
<path d="M4.00411 14.437C4.4978 14.437 4.88474 14.7839 4.87139 15.1442L4.61788 18.68C4.61788 19.0403 4.17757 19.3205 3.69723 19.2938L0.868545 19.1204C0.37486 19.1204 -0.0254244 18.7868 0.00126126 18.4132L0.174718 14.9174C0.174718 14.5438 0.615031 14.2769 1.10872 14.3036L4.00411 14.437Z" fill="#645033"/>
<path d="M31.424 15.8379C30.9303 15.8379 30.5033 16.0914 30.49 16.4517L30.3165 20.0142C30.3165 20.3878 30.6768 20.708 31.1705 20.7347L33.9991 20.8815C34.4928 20.8815 34.9065 20.628 34.9331 20.2544L35.1066 16.7585C35.1066 16.3849 34.733 16.0781 34.2393 16.0514L31.424 15.8379Z" fill="#645033"/>
<path d="M4.20412 21.6687C4.37679 21.5533 4.58654 21.5071 4.7917 21.5393C4.99687 21.5714 5.18244 21.6795 5.31157 21.8422L6.89937 24.9644C7.07283 25.298 6.89937 25.7383 6.40568 25.9651L3.88389 27.2994C3.71383 27.4191 3.50331 27.4666 3.29831 27.4316C3.09332 27.3966 2.9105 27.2819 2.78978 27.1126L1.18864 24.017C1.01518 23.6968 1.18864 23.2432 1.68232 23.0163L4.20412 21.6687Z" fill="#645033"/>
<path d="M28.7017 9.1397C28.2613 9.36653 28.0345 9.80684 28.208 10.1271L29.8091 13.2493C29.9298 13.4186 30.1126 13.5333 30.3176 13.5683C30.5226 13.6033 30.7332 13.5558 30.9032 13.4361L33.425 12.1018C33.6193 12.0293 33.7786 11.8853 33.8703 11.6994C33.9621 11.5134 33.9794 11.2994 33.9187 11.1011L32.3176 8.00556C32.1968 7.83622 32.014 7.72152 31.809 7.68652C31.604 7.65153 31.3935 7.69906 31.2234 7.81876L28.7017 9.1397Z" fill="#645033"/>
<path d="M8.00676 27.7931C8.09679 27.6032 8.25679 27.4555 8.45326 27.3809C8.64973 27.3063 8.86745 27.3106 9.06084 27.3928L12.0096 29.3542C12.1655 29.495 12.2599 29.6913 12.2724 29.901C12.2849 30.1106 12.2144 30.3168 12.0763 30.475L10.5686 32.7967C10.4788 32.9832 10.3202 33.1278 10.1262 33.1999C9.93214 33.2721 9.71768 33.2662 9.52784 33.1836L6.57907 31.2756C6.43636 31.1266 6.35669 30.9282 6.35669 30.7219C6.35669 30.5155 6.43636 30.3172 6.57907 30.1682L8.00676 27.7931Z" fill="#645033"/>
<path d="M23.0041 4.68316C22.866 4.84139 22.7956 5.04755 22.8081 5.25722C22.8205 5.46688 22.9149 5.66324 23.0708 5.80396L26.0196 7.69864C26.2094 7.78123 26.4239 7.78706 26.6179 7.71491C26.812 7.64277 26.9706 7.49825 27.0603 7.3117L28.5948 4.93667C28.7288 4.77921 28.7968 4.57596 28.7843 4.36952C28.7719 4.16307 28.6801 3.96945 28.528 3.82922L25.5793 1.9212C25.3894 1.83861 25.175 1.83277 24.9809 1.90492C24.7869 1.97707 24.6283 2.12159 24.5385 2.30814L23.0041 4.68316Z" fill="#645033"/>
<path d="M18.3075 2.78857C15.3873 2.6393 12.4883 3.35935 9.97736 4.85767C7.46637 6.35598 5.45609 8.56525 4.20073 11.2061C2.94538 13.8469 2.50133 16.8007 2.92476 19.694C3.34818 22.5872 4.62005 25.2899 6.57953 27.4602C8.53901 29.6306 11.0981 31.1711 13.9331 31.887C16.7682 32.603 19.7518 32.4621 22.5068 31.4823C25.2618 30.5024 27.6643 28.7276 29.4106 26.3823C31.1569 24.037 32.1685 21.2265 32.3174 18.3063C32.5172 14.3907 31.1534 10.5562 28.526 7.64608C25.8987 4.73599 22.223 2.98871 18.3075 2.78857ZM29.5021 18.1595C29.3902 20.5357 28.5751 22.8252 27.1601 24.7375C25.7451 26.6498 23.7941 28.0987 21.5544 28.9005C19.3147 29.7023 16.8874 29.8209 14.5803 29.2411C12.2731 28.6614 10.1902 27.4094 8.59559 25.6441C7.001 23.8788 5.96665 21.6797 5.62373 19.3257C5.28081 16.9717 5.64478 14.5689 6.66947 12.422C7.69415 10.2751 9.33339 8.48099 11.3792 7.26713C13.4251 6.05326 15.7854 5.47438 18.1607 5.6039C21.3254 5.77648 24.2936 7.19317 26.4181 9.54514C28.5426 11.8971 29.6512 14.9936 29.5021 18.1595Z" fill="#768296"/>
<path d="M15.4654 10.1404C15.473 10.2128 15.4522 10.2852 15.4074 10.3425C15.3626 10.3997 15.2972 10.4373 15.2252 10.4473H14.011C13.8776 10.4473 13.7842 10.3006 13.7975 10.1271V9.15308C13.7975 8.97962 13.9176 8.84619 14.051 8.84619H15.2652C15.3853 8.84619 15.4787 8.99296 15.4787 9.16642L15.4654 10.1404Z" fill="#FFA229"/>
<path d="M14.9856 19.6672C14.9856 19.4938 14.8922 19.347 14.7722 19.347L13.558 19.2803C13.4245 19.2803 13.3178 19.4137 13.3044 19.5872V20.5612C13.3044 20.7346 13.3845 20.8814 13.5179 20.8814H14.7321C14.8522 20.8814 14.959 20.748 14.9723 20.5879L14.9856 19.6672Z" fill="#FFA229"/>
<path d="M12.9575 10.2339C13.0375 10.394 12.9575 10.5674 12.9575 10.6208L11.8634 11.1679C11.7566 11.2346 11.6098 11.1679 11.5298 10.9944L11.0761 10.1271C11.0558 10.0983 11.0414 10.0657 11.0337 10.0312C11.026 9.99677 11.0253 9.96114 11.0315 9.92639C11.0377 9.89165 11.0507 9.85848 11.0699 9.8288C11.089 9.79913 11.1138 9.77354 11.1428 9.75352L12.2236 9.19312C12.2818 9.18362 12.3414 9.19269 12.3941 9.21903C12.4468 9.24538 12.4899 9.28767 12.5172 9.33989L12.9575 10.2339Z" fill="#FFA229"/>
<path d="M17.3469 18.68C17.2669 18.5198 17.1067 18.4398 17 18.5065L15.9192 19.0536C15.7992 19.0536 15.7725 19.2804 15.8525 19.4405L16.2928 20.3078C16.3199 20.3769 16.372 20.4332 16.4389 20.4653C16.5057 20.4975 16.5822 20.5032 16.6531 20.4812L17.7339 19.9342C17.7808 19.8807 17.8066 19.8119 17.8066 19.7407C17.8066 19.6695 17.7808 19.6008 17.7339 19.5472L17.3469 18.68Z" fill="#FFA229"/>
<path d="M10.8358 11.5683C10.9826 11.6617 11.0493 11.8218 10.9826 11.9285L10.3154 12.9559C10.2633 13.0057 10.194 13.0334 10.122 13.0334C10.0499 13.0334 9.98062 13.0057 9.9285 12.9559L9.11459 12.4222C8.96782 12.3288 8.9011 12.1687 8.96782 12.0619L9.63496 11.0345C9.68708 10.9848 9.75637 10.957 9.82843 10.957C9.90049 10.957 9.96978 10.9848 10.0219 11.0345L10.8358 11.5683Z" fill="#FFA229"/>
<path d="M18.8412 16.7452C18.7891 16.6955 18.7198 16.6677 18.6478 16.6677C18.5757 16.6677 18.5064 16.6955 18.4543 16.7452L17.8005 17.7726C17.7727 17.8384 17.771 17.9123 17.7958 17.9792C17.8206 18.0462 17.87 18.1011 17.9339 18.1329L18.7612 18.6666C18.8133 18.7164 18.8826 18.7441 18.9547 18.7441C19.0267 18.7441 19.096 18.7164 19.1481 18.6666L19.8019 17.6526C19.8305 17.5849 19.8326 17.509 19.8079 17.4398C19.7832 17.3706 19.7334 17.3132 19.6685 17.279L18.8412 16.7452Z" fill="#FFA229"/>
<path d="M9.67491 13.7832C9.7463 13.7825 9.81548 13.8079 9.86951 13.8546C9.92354 13.9012 9.95872 13.966 9.96845 14.0367V15.2509C9.96845 15.371 9.82168 15.4644 9.64822 15.4644H8.67419C8.50074 15.4644 8.36731 15.3443 8.36731 15.2109V14.01C8.36731 13.8766 8.51408 13.7832 8.68754 13.7966L9.67491 13.7832Z" fill="#FFA229"/>
<path d="M19.1885 14.2768C19.118 14.2647 19.0455 14.2801 18.9859 14.3198C18.9264 14.3595 18.8843 14.4205 18.8683 14.4903V15.6911C18.8683 15.8245 18.9884 15.9313 19.1618 15.9446H20.1359C20.3093 15.9446 20.4561 15.8512 20.4561 15.7311L20.5228 14.5169C20.5228 14.3835 20.4027 14.2768 20.2293 14.2634L19.1885 14.2768Z" fill="#FFA229"/>
<path d="M9.76838 16.2916C9.81826 16.2427 9.88532 16.2153 9.95518 16.2153C10.025 16.2153 10.0921 16.2427 10.142 16.2916L10.7024 17.3724C10.7024 17.4791 10.7024 17.6392 10.5289 17.7193L9.64829 18.1596C9.60335 18.1912 9.54977 18.2081 9.49485 18.2081C9.43992 18.2081 9.38634 18.1912 9.3414 18.1596L8.78101 17.0788C8.78101 16.9721 8.78101 16.812 8.95446 16.7319L9.76838 16.2916Z" fill="#FFA229"/>
<path d="M18.2543 12.0086C18.1862 12.0329 18.1301 12.0825 18.0978 12.1472C18.0655 12.2118 18.0594 12.2865 18.0808 12.3555L18.6812 13.3429C18.6812 13.463 18.8947 13.4896 19.0548 13.4096L19.9221 12.9693C20.0822 12.8892 20.1623 12.7291 20.0956 12.6224L19.5485 11.5416C19.5056 11.482 19.4411 11.4416 19.3687 11.4291C19.2963 11.4166 19.222 11.4331 19.1616 11.4749L18.2543 12.0086Z" fill="#FFA229"/>
<path d="M11.0892 18.4131C11.1235 18.3481 11.1809 18.2984 11.25 18.2737C11.3192 18.249 11.3951 18.2511 11.4628 18.2796L12.4768 18.9334C12.5266 18.9856 12.5544 19.0549 12.5544 19.1269C12.5544 19.199 12.5266 19.2683 12.4768 19.3204L12.0098 20.1476C11.9781 20.2116 11.9231 20.261 11.8562 20.2858C11.7892 20.3106 11.7153 20.3089 11.6496 20.2811L10.6222 19.6139C10.5733 19.564 10.5459 19.497 10.5459 19.4271C10.5459 19.3573 10.5733 19.2902 10.6222 19.2403L11.0892 18.4131Z" fill="#FFA229"/>
<path d="M16.2798 10.4074C16.23 10.4596 16.2023 10.5288 16.2023 10.6009C16.2023 10.673 16.23 10.7423 16.2798 10.7944L17.2938 11.4482C17.4006 11.5282 17.5607 11.4482 17.6541 11.3147L18.1878 10.4875C18.2367 10.4376 18.2641 10.3705 18.2641 10.3007C18.2641 10.2308 18.2367 10.1638 18.1878 10.1139L17.1738 9.44675C17.108 9.4189 17.0341 9.41721 16.9672 9.442C16.9002 9.4668 16.8452 9.51622 16.8135 9.58018L16.2798 10.4074Z" fill="#FFA229"/>
<path d="M14.6783 9.75359C13.6682 9.70447 12.6661 9.9562 11.7991 10.4769C10.932 10.9976 10.239 11.7639 9.80774 12.6787C9.37647 13.5935 9.22634 14.6157 9.37637 15.6159C9.52639 16.6161 9.96983 17.5493 10.6505 18.2973C11.3312 19.0453 12.2186 19.5745 13.2002 19.818C14.1819 20.0614 15.2137 20.008 16.165 19.6647C17.1163 19.3213 17.9443 18.7034 18.5443 17.8892C19.1442 17.075 19.489 16.1011 19.5351 15.0907C19.5932 13.7404 19.1154 12.4218 18.2057 11.4221C17.296 10.4225 16.0282 9.82274 14.6783 9.75359ZM14.2514 18.2263C13.5877 18.1912 12.9492 17.9601 12.4168 17.5624C11.8843 17.1646 11.4817 16.6179 11.2597 15.9915C11.0377 15.365 11.0064 14.6868 11.1697 14.0425C11.333 13.3982 11.6836 12.8168 12.1771 12.3717C12.6707 11.9266 13.2851 11.6377 13.9428 11.5416C14.6004 11.4454 15.2718 11.5464 15.8721 11.8316C16.4724 12.1168 16.9747 12.5736 17.3156 13.1442C17.6565 13.7148 17.8206 14.3736 17.7872 15.0374C17.7651 15.4815 17.6551 15.9168 17.4636 16.3181C17.2721 16.7195 17.0029 17.0788 16.6716 17.3754C16.3402 17.672 15.9534 17.8999 15.5334 18.046C15.1133 18.192 14.6685 18.2533 14.2247 18.2263H14.2514Z" fill="#FFA229"/>
<path d="M22.951 18.2795C22.951 18.3996 22.8709 18.5064 22.7775 18.5064H21.8702C21.7768 18.5064 21.7101 18.413 21.7101 18.2795V17.5457C21.7101 17.4256 21.7901 17.3188 21.8835 17.3188H22.7909C22.8843 17.3188 22.951 17.4256 22.951 17.5457V18.2795Z" fill="#764324"/>
<path d="M22.8979 25.3513C22.8979 25.2178 22.8178 25.1111 22.7244 25.1111H21.8171C21.7237 25.1111 21.6437 25.2178 21.6437 25.3379V26.0718C21.6437 26.1919 21.7104 26.2986 21.8171 26.2986H22.6844C22.7778 26.2986 22.8579 26.2052 22.8579 26.0718L22.8979 25.3513Z" fill="#764324"/>
<path d="M21.0965 18.4264C21.1332 18.4638 21.1537 18.5141 21.1537 18.5665C21.1537 18.6189 21.1332 18.6692 21.0965 18.7066L20.3093 19.1603C20.2597 19.1742 20.2066 19.1698 20.16 19.1477C20.1134 19.1256 20.0764 19.0874 20.0558 19.0402L19.6955 18.3997C19.6588 18.3623 19.6383 18.312 19.6383 18.2596C19.6383 18.2072 19.6588 18.1569 19.6955 18.1195L20.4827 17.6792C20.5628 17.6792 20.6829 17.6792 20.7496 17.7859L21.0965 18.4264Z" fill="#764324"/>
<path d="M24.5922 24.591C24.569 24.5427 24.5295 24.5041 24.4807 24.4821C24.4318 24.4602 24.3768 24.4562 24.3253 24.4709L23.5381 24.9112C23.5005 24.9508 23.4796 25.0034 23.4796 25.058C23.4796 25.1126 23.5005 25.1651 23.5381 25.2047L23.885 25.8319C23.9517 25.9519 24.0718 26.0053 24.1518 25.9519L24.9391 25.5116C24.9739 25.4706 24.993 25.4186 24.993 25.3649C24.993 25.3111 24.9739 25.2591 24.9391 25.2181L24.5922 24.591Z" fill="#764324"/>
<path d="M19.5616 19.4806C19.6684 19.5474 19.7217 19.6674 19.6684 19.7475L19.2147 20.5214C19.2147 20.6148 19.0413 20.6148 18.9212 20.5214L18.3074 20.1478C18.1873 20.0811 18.1339 19.961 18.1873 19.8809L18.641 19.107C18.6806 19.0695 18.7331 19.0486 18.7877 19.0486C18.8423 19.0486 18.8949 19.0695 18.9345 19.107L19.5616 19.4806Z" fill="#764324"/>
<path d="M25.6731 23.0697C25.6335 23.0322 25.5809 23.0112 25.5263 23.0112C25.4717 23.0112 25.4192 23.0322 25.3796 23.0697L24.9259 23.8569C24.9259 23.937 24.9259 24.0571 25.046 24.1238L25.6731 24.484C25.7105 24.5207 25.7608 24.5412 25.8132 24.5412C25.8656 24.5412 25.9159 24.5207 25.9533 24.484L26.407 23.7101C26.407 23.6301 26.407 23.51 26.3002 23.4433L25.6731 23.0697Z" fill="#764324"/>
<path d="M18.7616 21.1616C18.895 21.1616 18.9884 21.2417 18.9884 21.3351V22.2424C18.9884 22.3358 18.8817 22.4025 18.7483 22.4025H18.0278C17.8943 22.4025 17.7876 22.3224 17.8009 22.229V21.3484C17.8009 21.2417 17.9077 21.175 18.0278 21.175L18.7616 21.1616Z" fill="#764324"/>
<path d="M25.8466 21.2151C25.7265 21.2151 25.6198 21.2951 25.6198 21.3885V22.2958C25.6198 22.3892 25.7265 22.4693 25.8466 22.4693H26.5804C26.7005 22.4693 26.8073 22.3892 26.8073 22.2958V21.3485C26.8073 21.2551 26.7005 21.175 26.5804 21.175L25.8466 21.2151Z" fill="#764324"/>
<path d="M18.9078 23.0164C19.0145 23.0164 19.148 23.0164 19.188 23.0164L19.6417 23.8036C19.6556 23.8532 19.6512 23.9062 19.6291 23.9528C19.607 23.9994 19.5688 24.0365 19.5216 24.0571L18.8945 24.4174C18.8548 24.4549 18.8023 24.4758 18.7477 24.4758C18.6931 24.4758 18.6406 24.4549 18.6009 24.4174L18.1606 23.6301C18.1429 23.5787 18.1454 23.5225 18.1677 23.4729C18.19 23.4233 18.2304 23.3841 18.2807 23.3633L18.9078 23.0164Z" fill="#764324"/>
<path d="M25.0723 19.5206C25.024 19.5438 24.9854 19.5832 24.9635 19.6321C24.9415 19.6809 24.9375 19.736 24.9522 19.7875L25.4059 20.5747C25.4059 20.6548 25.5793 20.6681 25.6861 20.5747L26.3265 20.2144C26.4333 20.2144 26.4866 20.0276 26.4333 19.9476L25.9929 19.1604C25.9929 19.0803 25.8195 19.067 25.6994 19.1604L25.0723 19.5206Z" fill="#764324"/>
<path d="M20.0154 24.5508C20.0154 24.444 20.2022 24.3907 20.2822 24.444L21.0695 24.8977C21.1061 24.9351 21.1267 24.9854 21.1267 25.0378C21.1267 25.0902 21.1061 25.1405 21.0695 25.1779L20.6959 25.805C20.6751 25.8552 20.6359 25.8956 20.5863 25.918C20.5367 25.9403 20.4804 25.9428 20.429 25.9251L19.6551 25.4714C19.6176 25.4318 19.5967 25.3793 19.5967 25.3247C19.5967 25.2701 19.6176 25.2175 19.6551 25.1779L20.0154 24.5508Z" fill="#764324"/>
<path d="M23.5648 18.4399C23.5273 18.4796 23.5063 18.5321 23.5063 18.5867C23.5063 18.6413 23.5273 18.6938 23.5648 18.7335L24.3387 19.1871C24.4187 19.1871 24.5388 19.1871 24.6055 19.0804L24.9791 18.4533C25.0139 18.4123 25.033 18.3602 25.033 18.3065C25.033 18.2527 25.0139 18.2007 24.9791 18.1597L24.2053 17.7061C24.1252 17.7061 24.0051 17.7061 23.9384 17.8128L23.5648 18.4399Z" fill="#764324"/>
<path d="M22.3236 18.0128C21.5715 18.0075 20.8347 18.2254 20.2065 18.6389C19.5782 19.0523 19.0867 19.6428 18.794 20.3356C18.5013 21.0284 18.4207 21.7924 18.5622 22.5311C18.7038 23.2698 19.0612 23.9499 19.5892 24.4854C20.1173 25.0209 20.7923 25.3878 21.5289 25.5397C22.2655 25.6916 23.0306 25.6217 23.7275 25.3388C24.4243 25.0559 25.0216 24.5727 25.4439 23.9503C25.8661 23.3279 26.0943 22.5943 26.0996 21.8422C26.1049 21.3423 26.0112 20.8463 25.824 20.3828C25.6367 19.9193 25.3596 19.4975 25.0087 19.1415C24.6577 18.7856 24.2397 18.5026 23.7789 18.3089C23.3181 18.1151 22.8235 18.0145 22.3236 18.0128ZM22.3236 24.3239C21.8274 24.3213 21.3433 24.1716 20.9322 23.8938C20.5212 23.6159 20.2018 23.2225 20.0144 22.7631C19.8269 22.3038 19.78 21.7991 19.8793 21.3131C19.9787 20.827 20.22 20.3813 20.5727 20.0324C20.9253 19.6834 21.3736 19.4469 21.8606 19.3527C22.3477 19.2585 22.8518 19.3109 23.3092 19.5032C23.7665 19.6954 24.1566 20.019 24.43 20.433C24.7034 20.847 24.848 21.3327 24.8454 21.8288C24.8419 22.1611 24.7728 22.4895 24.642 22.795C24.5112 23.1005 24.3213 23.3771 24.0832 23.609C23.8451 23.8409 23.5636 24.0234 23.2547 24.1461C22.9459 24.2688 22.6158 24.3292 22.2835 24.3239H22.3236Z" fill="#764324"/>
<path d="M17.5339 28.0201C14.9597 28.0201 12.4771 27.0649 10.5667 25.3394C8.65638 23.614 7.45429 21.241 7.19324 18.6801L8.18061 18.5867C8.42038 21.0723 9.63725 23.3609 11.5638 24.9497C13.4903 26.5385 15.9688 27.2973 18.4546 27.0594L18.548 28.0467C18.2144 27.94 17.8675 28.0201 17.5339 28.0201Z" fill="#768296"/>
<path d="M26.9273 16.6518C26.6875 14.1663 25.4707 11.8776 23.5442 10.2888C21.6176 8.70006 19.1391 7.94124 16.6533 8.17915L16.5599 7.19178C19.3021 6.93482 22.0347 7.7725 24.1618 9.52215C26.2889 11.2718 27.6379 13.7915 27.9147 16.5318L26.9273 16.6518Z" fill="#768296"/>
</svg>
