<svg width="25" height="28" viewBox="0 0 25 28" fill="none" xmlns="http://www.w3.org/2000/svg">
<path fill-rule="evenodd" clip-rule="evenodd" d="M9.22547 1.48517C8.19706 -0.144288 16.8673 -1.49762 17.443 3.48931C17.6694 4.99192 17.6694 6.52088 17.443 8.0235C17.443 8.0235 18.7388 7.87519 17.8743 10.3379C17.8743 10.3379 17.3981 12.1098 16.6663 11.7117C16.6663 11.7117 16.7854 13.952 15.634 14.3316C15.634 14.3316 15.716 15.5249 15.716 15.6058L16.6781 15.7493C16.6781 15.7493 16.6488 16.7445 16.841 16.8518C17.7191 17.4178 18.6812 17.8481 19.693 18.1252C22.6807 18.8833 24.197 20.1839 24.197 21.3236L25 25.4109C21.542 26.8598 17.5289 27.7263 13.2376 27.817H11.738C7.45551 27.7263 3.45114 26.8638 0 25.4207C0.157092 24.2898 0.361994 23.0106 0.573726 22.1861C1.02841 20.4142 3.58578 19.098 5.93826 18.0861C7.15596 17.5622 7.4194 17.247 8.64491 16.7113C8.71321 16.3855 8.74054 16.0518 8.72688 15.719L9.76895 15.5951C9.76895 15.5951 9.90555 15.8439 9.68601 14.3803C9.68601 14.3803 8.51514 14.0769 8.4605 11.7459C8.4605 11.7459 7.5804 12.0386 7.52771 10.6267C7.48966 9.67052 6.73933 8.8392 7.81945 8.15132L7.26914 6.68578C7.26914 6.68578 6.69152 1.02658 9.22547 1.48517Z" fill="#CCCCCC"/>
</svg>
