<svg width="33" height="33" viewBox="0 0 33 33" fill="none" xmlns="http://www.w3.org/2000/svg">
<path d="M19.2583 0C26.8314 0 33 6.16865 33 13.7417C33 21.3148 26.8314 27.4834 19.2583 27.4834C15.9651 27.4834 12.9407 26.314 10.5704 24.3727L2.36567 32.5775C2.23905 32.7094 2.08738 32.8147 1.91956 32.8872C1.75173 32.9597 1.57112 32.9981 1.3883 32.9999C1.20547 33.0018 1.02412 32.9671 0.854851 32.898C0.685585 32.8289 0.531807 32.7268 0.402527 32.5975C0.273247 32.4682 0.171062 32.3144 0.101955 32.1451C0.0328522 31.9759 -0.00178909 31.7945 7.24792e-05 31.6117C0.00193405 31.4289 0.0402565 31.2483 0.112793 31.0804C0.185329 30.9126 0.290623 30.761 0.422508 30.6343L8.62727 22.4296C6.68604 20.0593 5.5166 17.0349 5.5166 13.7417C5.5166 6.16865 11.6852 0 19.2583 0ZM19.2583 2.74834C13.1706 2.74834 8.26494 7.65396 8.26494 13.7417C8.26494 19.8294 13.1706 24.7351 19.2583 24.7351C25.346 24.7351 30.2517 19.8294 30.2517 13.7417C30.2517 7.65396 25.346 2.74834 19.2583 2.74834Z" fill="url(#paint0_radial_538_2308)"/>
<defs>
<radialGradient id="paint0_radial_538_2308" cx="0" cy="0" r="1" gradientUnits="userSpaceOnUse" gradientTransform="translate(30.3423 12.3297) rotate(146.369) scale(51.0718 110.588)">
<stop stop-color="#F06512"/>
<stop offset="0.393406" stop-color="#F9A121"/>
<stop offset="1" stop-color="#F9990E"/>
</radialGradient>
</defs>
</svg>
