<svg width="118" height="44" viewBox="0 0 118 44" fill="none" xmlns="http://www.w3.org/2000/svg">
<path d="M116.089 18.17L98.0531 1.89262C97.3932 1.2975 96.5871 0.821581 95.687 0.495583C94.787 0.169584 93.8128 0.000756208 92.8275 0L3.74038 0C2.74882 0.00118351 1.79828 0.322112 1.09714 0.892436C0.395997 1.46276 0.00145498 2.23595 0 3.04251L0 40.953C-1.07007e-06 41.7604 0.393898 42.5347 1.0952 43.106C1.7965 43.6773 2.74787 43.9988 3.74038 44H92.8496C93.8348 43.9992 94.809 43.8304 95.709 43.5044C96.6091 43.1784 97.4152 42.7025 98.0751 42.1074L116.111 25.83C117.275 24.7777 117.916 23.4117 117.912 21.9966C117.908 20.5814 117.259 19.2179 116.089 18.17Z" fill="url(#paint0_radial_538_2500)"/>
<path d="M4.77423 2.09399C4.64041 2.09399 4.50961 2.12627 4.39834 2.18674C4.28708 2.24721 4.20037 2.33316 4.14916 2.43373C4.09795 2.53429 4.08455 2.64494 4.11066 2.75169C4.13676 2.85845 4.2012 2.95651 4.29582 3.03348C4.39044 3.11044 4.51099 3.16286 4.64223 3.18409C4.77348 3.20533 4.90951 3.19443 5.03314 3.15277C5.15676 3.11112 5.26243 3.04058 5.33677 2.95008C5.41112 2.85958 5.4508 2.75318 5.4508 2.64433C5.4508 2.49837 5.37951 2.35839 5.25263 2.25518C5.12575 2.15198 4.95366 2.09399 4.77423 2.09399Z" fill="white"/>
<path d="M6.87004 3.19011C7.24066 3.19011 7.54111 2.94572 7.54111 2.64425C7.54111 2.34278 7.24066 2.09839 6.87004 2.09839C6.49942 2.09839 6.19897 2.34278 6.19897 2.64425C6.19897 2.94572 6.49942 3.19011 6.87004 3.19011Z" fill="white"/>
<path d="M8.96623 3.19011C9.33686 3.19011 9.6373 2.94572 9.6373 2.64425C9.6373 2.34278 9.33686 2.09839 8.96623 2.09839C8.59561 2.09839 8.29517 2.34278 8.29517 2.64425C8.29517 2.94572 8.59561 3.19011 8.96623 3.19011Z" fill="white"/>
<path d="M11.0565 2.09399C10.9226 2.09399 10.7918 2.12627 10.6806 2.18674C10.5693 2.24721 10.4826 2.33316 10.4314 2.43373C10.3802 2.53429 10.3668 2.64494 10.3929 2.75169C10.419 2.85845 10.4834 2.95651 10.578 3.03348C10.6727 3.11044 10.7932 3.16286 10.9245 3.18409C11.0557 3.20533 11.1917 3.19443 11.3154 3.15277C11.439 3.11112 11.5447 3.04058 11.619 2.95008C11.6933 2.85958 11.733 2.75318 11.733 2.64433C11.733 2.49837 11.6617 2.35839 11.5349 2.25518C11.408 2.15198 11.2359 2.09399 11.0565 2.09399Z" fill="white"/>
<path d="M13.152 3.19011C13.5226 3.19011 13.8231 2.94572 13.8231 2.64425C13.8231 2.34278 13.5226 2.09839 13.152 2.09839C12.7814 2.09839 12.481 2.34278 12.481 2.64425C12.481 2.94572 12.7814 3.19011 13.152 3.19011Z" fill="white"/>
<path d="M15.2477 3.19011C15.6184 3.19011 15.9188 2.94572 15.9188 2.64425C15.9188 2.34278 15.6184 2.09839 15.2477 2.09839C14.8771 2.09839 14.5767 2.34278 14.5767 2.64425C14.5767 2.94572 14.8771 3.19011 15.2477 3.19011Z" fill="white"/>
<path d="M17.3432 2.09401C17.2092 2.09313 17.0778 2.12465 16.9658 2.18458C16.8539 2.24451 16.7663 2.33015 16.7142 2.43063C16.6622 2.5311 16.648 2.6419 16.6735 2.74894C16.699 2.85599 16.7629 2.95447 16.8573 3.03188C16.9517 3.1093 17.0723 3.16216 17.2037 3.18376C17.3351 3.20536 17.4714 3.19472 17.5953 3.15321C17.7193 3.11169 17.8253 3.04115 17.8999 2.95056C17.9744 2.85996 18.0143 2.75338 18.0143 2.64435C18.0143 2.49916 17.9438 2.35986 17.8181 2.25678C17.6924 2.1537 17.5217 2.09519 17.3432 2.09401Z" fill="white"/>
<path d="M19.4335 3.19011C19.8041 3.19011 20.1046 2.94572 20.1046 2.64425C20.1046 2.34278 19.8041 2.09839 19.4335 2.09839C19.0629 2.09839 18.7625 2.34278 18.7625 2.64425C18.7625 2.94572 19.0629 3.19011 19.4335 3.19011Z" fill="white"/>
<path d="M21.5292 3.19011C21.8998 3.19011 22.2003 2.94572 22.2003 2.64425C22.2003 2.34278 21.8998 2.09839 21.5292 2.09839C21.1586 2.09839 20.8582 2.34278 20.8582 2.64425C20.8582 2.94572 21.1586 3.19011 21.5292 3.19011Z" fill="white"/>
<path d="M23.6523 2.09401C23.5182 2.09313 23.3869 2.12465 23.2749 2.18458C23.1629 2.24451 23.0754 2.33015 23.0233 2.43063C22.9713 2.5311 22.9571 2.6419 22.9826 2.74894C23.008 2.85599 23.072 2.95447 23.1664 3.03188C23.2608 3.1093 23.3814 3.16216 23.5128 3.18376C23.6441 3.20536 23.7805 3.19472 23.9044 3.15321C24.0284 3.11169 24.1344 3.04115 24.2089 2.95056C24.2835 2.85996 24.3234 2.75338 24.3234 2.64435C24.3241 2.57229 24.3073 2.50083 24.2739 2.43408C24.2405 2.36734 24.1911 2.30663 24.1288 2.25547C24.0664 2.20431 23.9921 2.1637 23.9104 2.13599C23.8286 2.10828 23.7409 2.09401 23.6523 2.09401Z" fill="white"/>
<path d="M25.7209 3.19011C26.0915 3.19011 26.3919 2.94572 26.3919 2.64425C26.3919 2.34278 26.0915 2.09839 25.7209 2.09839C25.3503 2.09839 25.0498 2.34278 25.0498 2.64425C25.0498 2.94572 25.3503 3.19011 25.7209 3.19011Z" fill="white"/>
<path d="M27.811 3.19011C28.1816 3.19011 28.482 2.94572 28.482 2.64425C28.482 2.34278 28.1816 2.09839 27.811 2.09839C27.4403 2.09839 27.1399 2.34278 27.1399 2.64425C27.1399 2.94572 27.4403 3.19011 27.811 3.19011Z" fill="white"/>
<path d="M29.9065 2.09399C29.7727 2.09399 29.6419 2.12627 29.5307 2.18674C29.4194 2.24721 29.3327 2.33316 29.2815 2.43373C29.2303 2.53429 29.2169 2.64494 29.243 2.75169C29.2691 2.85845 29.3335 2.95651 29.4281 3.03348C29.5228 3.11044 29.6433 3.16286 29.7746 3.18409C29.9058 3.20533 30.0418 3.19443 30.1655 3.15277C30.2891 3.11112 30.3948 3.04058 30.4691 2.95008C30.5434 2.85958 30.5831 2.75318 30.5831 2.64433C30.5831 2.49837 30.5118 2.35839 30.385 2.25518C30.2581 2.15198 30.086 2.09399 29.9065 2.09399Z" fill="white"/>
<path d="M32.0021 3.19011C32.3727 3.19011 32.6732 2.94572 32.6732 2.64425C32.6732 2.34278 32.3727 2.09839 32.0021 2.09839C31.6315 2.09839 31.3311 2.34278 31.3311 2.64425C31.3311 2.94572 31.6315 3.19011 32.0021 3.19011Z" fill="white"/>
<path d="M34.1037 2.09401C33.9697 2.09313 33.8383 2.12465 33.7263 2.18458C33.6143 2.24451 33.5268 2.33015 33.4747 2.43063C33.4227 2.5311 33.4085 2.6419 33.434 2.74894C33.4594 2.85599 33.5234 2.95447 33.6178 3.03188C33.7122 3.1093 33.8328 3.16216 33.9642 3.18376C34.0956 3.20536 34.2319 3.19472 34.3558 3.15321C34.4798 3.11169 34.5858 3.04115 34.6604 2.95056C34.7349 2.85996 34.7748 2.75338 34.7748 2.64435C34.7748 2.49916 34.7043 2.35986 34.5786 2.25678C34.4529 2.1537 34.2822 2.09519 34.1037 2.09401Z" fill="white"/>
<path d="M36.1882 3.19011C36.5588 3.19011 36.8592 2.94572 36.8592 2.64425C36.8592 2.34278 36.5588 2.09839 36.1882 2.09839C35.8175 2.09839 35.5171 2.34278 35.5171 2.64425C35.5171 2.94572 35.8175 3.19011 36.1882 3.19011Z" fill="white"/>
<path d="M38.2839 3.19011C38.6545 3.19011 38.9549 2.94572 38.9549 2.64425C38.9549 2.34278 38.6545 2.09839 38.2839 2.09839C37.9132 2.09839 37.6128 2.34278 37.6128 2.64425C37.6128 2.94572 37.9132 3.19011 38.2839 3.19011Z" fill="white"/>
<path d="M40.3796 2.09401C40.2455 2.09313 40.1142 2.12465 40.0022 2.18458C39.8902 2.24451 39.8027 2.33015 39.7506 2.43063C39.6986 2.5311 39.6844 2.6419 39.7098 2.74894C39.7353 2.85599 39.7993 2.95447 39.8937 3.03188C39.9881 3.1093 40.1087 3.16216 40.24 3.18376C40.3714 3.20536 40.5078 3.19472 40.6317 3.15321C40.7557 3.11169 40.8616 3.04115 40.9362 2.95056C41.0108 2.85996 41.0506 2.75338 41.0506 2.64435C41.0507 2.49916 40.9801 2.35986 40.8544 2.25678C40.7287 2.1537 40.5581 2.09519 40.3796 2.09401Z" fill="white"/>
<path d="M42.4753 3.19011C42.8459 3.19011 43.1463 2.94572 43.1463 2.64425C43.1463 2.34278 42.8459 2.09839 42.4753 2.09839C42.1046 2.09839 41.8042 2.34278 41.8042 2.64425C41.8042 2.94572 42.1046 3.19011 42.4753 3.19011Z" fill="white"/>
<path d="M44.5658 3.19011C44.9365 3.19011 45.2369 2.94572 45.2369 2.64425C45.2369 2.34278 44.9365 2.09839 44.5658 2.09839C44.1952 2.09839 43.8948 2.34278 43.8948 2.64425C43.8948 2.94572 44.1952 3.19011 44.5658 3.19011Z" fill="white"/>
<path d="M46.6613 2.09401C46.5273 2.09313 46.3959 2.12465 46.2839 2.18458C46.172 2.24451 46.0844 2.33015 46.0323 2.43063C45.9803 2.5311 45.9661 2.6419 45.9916 2.74894C46.0171 2.85599 46.0811 2.95447 46.1755 3.03188C46.2699 3.1093 46.3904 3.16216 46.5218 3.18376C46.6532 3.20536 46.7895 3.19472 46.9134 3.15321C47.0374 3.11169 47.1434 3.04115 47.218 2.95056C47.2926 2.85996 47.3324 2.75338 47.3324 2.64435C47.3331 2.57229 47.3163 2.50083 47.2829 2.43408C47.2495 2.36734 47.2002 2.30663 47.1378 2.25547C47.0754 2.20431 47.0012 2.1637 46.9194 2.13599C46.8376 2.10828 46.7499 2.09401 46.6613 2.09401Z" fill="white"/>
<path d="M48.757 3.19011C49.1276 3.19011 49.4281 2.94572 49.4281 2.64425C49.4281 2.34278 49.1276 2.09839 48.757 2.09839C48.3864 2.09839 48.0859 2.34278 48.0859 2.64425C48.0859 2.94572 48.3864 3.19011 48.757 3.19011Z" fill="white"/>
<path d="M50.8527 3.19011C51.2233 3.19011 51.5238 2.94572 51.5238 2.64425C51.5238 2.34278 51.2233 2.09839 50.8527 2.09839C50.4821 2.09839 50.1816 2.34278 50.1816 2.64425C50.1816 2.94572 50.4821 3.19011 50.8527 3.19011Z" fill="white"/>
<path d="M52.9429 2.09399C52.8091 2.09399 52.6783 2.12627 52.567 2.18674C52.4558 2.24721 52.3691 2.33316 52.3179 2.43373C52.2666 2.53429 52.2533 2.64494 52.2794 2.75169C52.3055 2.85845 52.3699 2.95651 52.4645 3.03348C52.5591 3.11044 52.6797 3.16286 52.8109 3.18409C52.9422 3.20533 53.0782 3.19443 53.2018 3.15277C53.3255 3.11112 53.4311 3.04058 53.5055 2.95008C53.5798 2.85958 53.6195 2.75318 53.6195 2.64433C53.6195 2.49837 53.5482 2.35839 53.4213 2.25518C53.2945 2.15198 53.1224 2.09399 52.9429 2.09399Z" fill="white"/>
<path d="M55.0385 3.19011C55.4091 3.19011 55.7096 2.94572 55.7096 2.64425C55.7096 2.34278 55.4091 2.09839 55.0385 2.09839C54.6679 2.09839 54.3674 2.34278 54.3674 2.64425C54.3674 2.94572 54.6679 3.19011 55.0385 3.19011Z" fill="white"/>
<path d="M57.1344 3.19011C57.5051 3.19011 57.8055 2.94572 57.8055 2.64425C57.8055 2.34278 57.5051 2.09839 57.1344 2.09839C56.7638 2.09839 56.4634 2.34278 56.4634 2.64425C56.4634 2.94572 56.7638 3.19011 57.1344 3.19011Z" fill="white"/>
<path d="M59.2299 2.09401C59.0959 2.09313 58.9645 2.12465 58.8526 2.18458C58.7406 2.24451 58.653 2.33015 58.6009 2.43063C58.5489 2.5311 58.5347 2.6419 58.5602 2.74894C58.5857 2.85599 58.6497 2.95447 58.7441 3.03188C58.8385 3.1093 58.959 3.16216 59.0904 3.18376C59.2218 3.20536 59.3581 3.19472 59.482 3.15321C59.606 3.11169 59.712 3.04115 59.7866 2.95056C59.8612 2.85996 59.901 2.75338 59.901 2.64435C59.901 2.49916 59.8305 2.35986 59.7048 2.25678C59.5791 2.1537 59.4084 2.09519 59.2299 2.09401Z" fill="white"/>
<path d="M61.3202 3.19011C61.6909 3.19011 61.9913 2.94572 61.9913 2.64425C61.9913 2.34278 61.6909 2.09839 61.3202 2.09839C60.9496 2.09839 60.6492 2.34278 60.6492 2.64425C60.6492 2.94572 60.9496 3.19011 61.3202 3.19011Z" fill="white"/>
<path d="M63.4325 3.19011C63.8032 3.19011 64.1036 2.94572 64.1036 2.64425C64.1036 2.34278 63.8032 2.09839 63.4325 2.09839C63.0619 2.09839 62.7615 2.34278 62.7615 2.64425C62.7615 2.94572 63.0619 3.19011 63.4325 3.19011Z" fill="white"/>
<path d="M65.5392 3.19011C65.9099 3.19011 66.2103 2.94572 66.2103 2.64425C66.2103 2.34278 65.9099 2.09839 65.5392 2.09839C65.1686 2.09839 64.8682 2.34278 64.8682 2.64425C64.8682 2.94572 65.1686 3.19011 65.5392 3.19011Z" fill="white"/>
<path d="M67.6572 2.09401C67.5231 2.09313 67.3918 2.12465 67.2798 2.18458C67.1678 2.24451 67.0802 2.33015 67.0282 2.43063C66.9761 2.5311 66.962 2.6419 66.9874 2.74894C67.0129 2.85599 67.0769 2.95447 67.1713 3.03188C67.2657 3.1093 67.3863 3.16216 67.5176 3.18376C67.649 3.20536 67.7853 3.19472 67.9093 3.15321C68.0332 3.11169 68.1392 3.04115 68.2138 2.95056C68.2884 2.85996 68.3282 2.75338 68.3282 2.64435C68.3282 2.49916 68.2577 2.35986 68.132 2.25678C68.0063 2.1537 67.8357 2.09519 67.6572 2.09401Z" fill="white"/>
<path d="M69.7582 3.19011C70.1288 3.19011 70.4293 2.94572 70.4293 2.64425C70.4293 2.34278 70.1288 2.09839 69.7582 2.09839C69.3876 2.09839 69.0872 2.34278 69.0872 2.64425C69.0872 2.94572 69.3876 3.19011 69.7582 3.19011Z" fill="white"/>
<path d="M71.8647 3.19011C72.2353 3.19011 72.5357 2.94572 72.5357 2.64425C72.5357 2.34278 72.2353 2.09839 71.8647 2.09839C71.4941 2.09839 71.1936 2.34278 71.1936 2.64425C71.1936 2.94572 71.4941 3.19011 71.8647 3.19011Z" fill="white"/>
<path d="M73.9772 3.19011C74.3478 3.19011 74.6483 2.94572 74.6483 2.64425C74.6483 2.34278 74.3478 2.09839 73.9772 2.09839C73.6066 2.09839 73.3062 2.34278 73.3062 2.64425C73.3062 2.94572 73.6066 3.19011 73.9772 3.19011Z" fill="white"/>
<path d="M76.0839 3.19011C76.4545 3.19011 76.755 2.94572 76.755 2.64425C76.755 2.34278 76.4545 2.09839 76.0839 2.09839C75.7133 2.09839 75.4128 2.34278 75.4128 2.64425C75.4128 2.94572 75.7133 3.19011 76.0839 3.19011Z" fill="white"/>
<path d="M78.1962 2.09401C78.0622 2.09313 77.9308 2.12465 77.8189 2.18458C77.7069 2.24451 77.6193 2.33015 77.5673 2.43063C77.5152 2.5311 77.501 2.6419 77.5265 2.74894C77.552 2.85599 77.616 2.95447 77.7104 3.03188C77.8048 3.1093 77.9253 3.16216 78.0567 3.18376C78.1881 3.20536 78.3244 3.19472 78.4484 3.15321C78.5723 3.11169 78.6783 3.04115 78.7529 2.95056C78.8275 2.85996 78.8673 2.75338 78.8673 2.64435C78.8673 2.49916 78.7968 2.35986 78.6711 2.25678C78.5454 2.1537 78.3747 2.09519 78.1962 2.09401Z" fill="white"/>
<path d="M80.308 2.09401C80.174 2.09313 80.0427 2.12465 79.9307 2.18458C79.8187 2.24451 79.7311 2.33015 79.6791 2.43063C79.627 2.5311 79.6128 2.6419 79.6383 2.74894C79.6638 2.85599 79.7278 2.95447 79.8222 3.03188C79.9166 3.1093 80.0371 3.16216 80.1685 3.18376C80.2999 3.20536 80.4362 3.19472 80.5602 3.15321C80.6841 3.11169 80.7901 3.04115 80.8647 2.95056C80.9393 2.85996 80.9791 2.75338 80.9791 2.64435C80.9791 2.49916 80.9086 2.35986 80.7829 2.25678C80.6572 2.1537 80.4865 2.09519 80.308 2.09401Z" fill="white"/>
<path d="M82.415 2.09401C82.2809 2.09313 82.1496 2.12465 82.0376 2.18458C81.9256 2.24451 81.8381 2.33015 81.786 2.43063C81.734 2.5311 81.7198 2.6419 81.7452 2.74894C81.7707 2.85599 81.8347 2.95447 81.9291 3.03188C82.0235 3.1093 82.1441 3.16216 82.2755 3.18376C82.4068 3.20536 82.5432 3.19472 82.6671 3.15321C82.7911 3.11169 82.897 3.04115 82.9716 2.95056C83.0462 2.85996 83.086 2.75338 83.0861 2.64435C83.0861 2.49916 83.0155 2.35986 82.8898 2.25678C82.7641 2.1537 82.5935 2.09519 82.415 2.09401Z" fill="white"/>
<path d="M84.5217 3.19011C84.8923 3.19011 85.1927 2.94572 85.1927 2.64425C85.1927 2.34278 84.8923 2.09839 84.5217 2.09839C84.151 2.09839 83.8506 2.34278 83.8506 2.64425C83.8506 2.94572 84.151 3.19011 84.5217 3.19011Z" fill="white"/>
<path d="M86.6285 3.19011C86.9991 3.19011 87.2995 2.94572 87.2995 2.64425C87.2995 2.34278 86.9991 2.09839 86.6285 2.09839C86.2578 2.09839 85.9574 2.34278 85.9574 2.64425C85.9574 2.94572 86.2578 3.19011 86.6285 3.19011Z" fill="white"/>
<path d="M88.7408 3.19011C89.1114 3.19011 89.4118 2.94572 89.4118 2.64425C89.4118 2.34278 89.1114 2.09839 88.7408 2.09839C88.3702 2.09839 88.0697 2.34278 88.0697 2.64425C88.0697 2.94572 88.3702 3.19011 88.7408 3.19011Z" fill="white"/>
<path d="M90.8474 2.09399C90.7135 2.09399 90.5827 2.12627 90.4715 2.18674C90.3602 2.24721 90.2735 2.33316 90.2223 2.43373C90.1711 2.53429 90.1577 2.64494 90.1838 2.75169C90.2099 2.85845 90.2743 2.95651 90.3689 3.03348C90.4636 3.11044 90.5841 3.16286 90.7154 3.18409C90.8466 3.20533 90.9826 3.19443 91.1063 3.15277C91.2299 3.11112 91.3356 3.04058 91.4099 2.95008C91.4842 2.85958 91.5239 2.75318 91.5239 2.64433C91.5239 2.49837 91.4526 2.35839 91.3258 2.25518C91.1989 2.15198 91.0268 2.09399 90.8474 2.09399Z" fill="white"/>
<path d="M92.9596 3.19011C93.3303 3.19011 93.6307 2.94572 93.6307 2.64425C93.6307 2.34278 93.3303 2.09839 92.9596 2.09839C92.589 2.09839 92.2886 2.34278 92.2886 2.64425C92.2886 2.94572 92.589 3.19011 92.9596 3.19011Z" fill="white"/>
<path d="M94.9673 2.90381C94.8346 2.90381 94.7049 2.93582 94.5945 2.9958C94.4841 3.05578 94.3981 3.14103 94.3473 3.24078C94.2966 3.34052 94.2833 3.45028 94.3092 3.55616C94.3351 3.66205 94.399 3.75931 94.4928 3.83565C94.5867 3.91199 94.7062 3.96398 94.8364 3.98504C94.9666 4.0061 95.1015 3.9953 95.2241 3.95398C95.3468 3.91267 95.4516 3.8427 95.5253 3.75293C95.599 3.66317 95.6384 3.55763 95.6384 3.44967C95.6384 3.3049 95.5677 3.16606 95.4418 3.06369C95.316 2.96132 95.1453 2.90381 94.9673 2.90381Z" fill="white"/>
<path d="M96.4855 4.2104C96.3529 4.20607 96.2217 4.23381 96.1085 4.2901C95.9953 4.34639 95.9052 4.42871 95.8495 4.52666C95.7938 4.62461 95.775 4.7338 95.7956 4.84042C95.8161 4.94703 95.8751 5.0463 95.965 5.12568C96.0549 5.20505 96.1717 5.26096 96.3006 5.28636C96.4296 5.31175 96.5649 5.30548 96.6895 5.26834C96.8141 5.2312 96.9223 5.16486 97.0005 5.0777C97.0788 4.99053 97.1235 4.88646 97.129 4.77863C97.1335 4.70679 97.1202 4.63496 97.0902 4.56732C97.0601 4.49968 97.0137 4.43759 96.9538 4.38469C96.8939 4.33179 96.8216 4.28913 96.7412 4.2592C96.6608 4.22928 96.5738 4.21269 96.4855 4.2104Z" fill="white"/>
<path d="M97.9376 5.48994C97.8037 5.48557 97.6712 5.51365 97.5569 5.5706C97.4427 5.62756 97.3518 5.71083 97.2958 5.80986C97.2398 5.90889 97.2212 6.01922 97.2424 6.12686C97.2636 6.23449 97.3236 6.33458 97.4148 6.41444C97.506 6.49429 97.6243 6.55031 97.7547 6.5754C97.8852 6.60049 98.0218 6.59351 98.1473 6.55534C98.2728 6.51718 98.3816 6.44956 98.4598 6.36105C98.538 6.27253 98.5822 6.16712 98.5866 6.05818C98.5926 5.91295 98.5277 5.77169 98.4061 5.66524C98.2845 5.55879 98.1161 5.49577 97.9376 5.48994Z" fill="white"/>
<path d="M99.3954 6.77414C99.2174 6.76821 99.0439 6.82003 98.9129 6.9182C98.7818 7.01637 98.7041 7.15286 98.6969 7.29763C98.6896 7.4424 98.7533 7.5836 98.874 7.69016C98.9946 7.79673 99.1624 7.85993 99.3404 7.86586C99.5181 7.87073 99.6909 7.81855 99.8216 7.72059C99.9523 7.62264 100.03 7.48678 100.039 7.34237C100.043 7.27053 100.03 7.1987 100 7.13106C99.97 7.06342 99.9237 7.00133 99.8638 6.94843C99.8039 6.89553 99.7316 6.85287 99.6512 6.82294C99.5707 6.79302 99.4838 6.77643 99.3954 6.77414Z" fill="white"/>
<path d="M100.847 8.05367C100.713 8.04929 100.581 8.07737 100.467 8.13432C100.352 8.19128 100.262 8.27455 100.206 8.37358C100.15 8.47261 100.131 8.58294 100.152 8.69058C100.173 8.79821 100.233 8.8983 100.325 8.97816C100.416 9.05801 100.534 9.11404 100.665 9.13912C100.795 9.16421 100.932 9.15723 101.057 9.11907C101.183 9.0809 101.291 9.01328 101.37 8.92477C101.448 8.83625 101.492 8.73084 101.496 8.6219C101.502 8.47667 101.437 8.33541 101.316 8.22896C101.194 8.12251 101.026 8.05949 100.847 8.05367Z" fill="white"/>
<path d="M102.31 9.33784C102.178 9.33351 102.047 9.36125 101.933 9.41754C101.82 9.47383 101.73 9.55615 101.674 9.6541C101.619 9.75205 101.6 9.86124 101.62 9.96786C101.641 10.0745 101.7 10.1737 101.79 10.2531C101.88 10.3325 101.997 10.3884 102.125 10.4138C102.254 10.4392 102.39 10.4329 102.514 10.3958C102.639 10.3586 102.747 10.2923 102.825 10.2051C102.904 10.118 102.948 10.0139 102.954 9.90607C102.958 9.83423 102.945 9.7624 102.915 9.69476C102.885 9.62712 102.839 9.56504 102.779 9.51213C102.719 9.45923 102.646 9.41657 102.566 9.38665C102.486 9.35672 102.399 9.34013 102.31 9.33784Z" fill="white"/>
<path d="M103.757 10.6174C103.623 10.613 103.491 10.6411 103.376 10.698C103.262 10.755 103.171 10.8383 103.115 10.9373C103.059 11.0363 103.041 11.1467 103.062 11.2543C103.083 11.3619 103.143 11.462 103.234 11.5419C103.325 11.6217 103.444 11.6778 103.574 11.7028C103.705 11.7279 103.841 11.7209 103.967 11.6828C104.092 11.6446 104.201 11.577 104.279 11.4885C104.358 11.4 104.402 11.2946 104.406 11.1856C104.412 11.0404 104.347 10.8991 104.226 10.7927C104.104 10.6862 103.936 10.6232 103.757 10.6174Z" fill="white"/>
<path d="M105.215 11.9016C105.082 11.8972 104.951 11.925 104.838 11.9813C104.725 12.0376 104.635 12.1199 104.579 12.2178C104.523 12.3158 104.504 12.425 104.525 12.5316C104.546 12.6382 104.604 12.7375 104.694 12.8168C104.784 12.8962 104.901 12.9521 105.03 12.9775C105.159 13.0029 105.294 12.9966 105.419 12.9595C105.543 12.9224 105.652 12.856 105.73 12.7689C105.808 12.6817 105.853 12.5776 105.858 12.4698C105.863 12.398 105.85 12.3261 105.82 12.2585C105.789 12.1908 105.743 12.1288 105.683 12.0759C105.623 12.023 105.551 11.9803 105.471 11.9504C105.39 11.9204 105.303 11.9038 105.215 11.9016Z" fill="white"/>
<path d="M106.672 13.1813C106.538 13.176 106.405 13.2033 106.29 13.2597C106.175 13.3161 106.084 13.399 106.027 13.4979C105.97 13.5969 105.951 13.7073 105.971 13.8152C105.992 13.9231 106.051 14.0236 106.142 14.1039C106.233 14.1842 106.351 14.2407 106.482 14.2661C106.612 14.2916 106.749 14.2849 106.875 14.2469C107.001 14.209 107.11 14.1414 107.189 14.0528C107.267 13.9642 107.311 13.8587 107.316 13.7495C107.322 13.605 107.258 13.4644 107.137 13.3581C107.017 13.2518 106.85 13.1883 106.672 13.1813Z" fill="white"/>
<path d="M108.125 14.4654C107.992 14.4619 107.861 14.4904 107.749 14.5473C107.636 14.6041 107.547 14.6868 107.492 14.7849C107.437 14.8829 107.419 14.992 107.441 15.0984C107.462 15.2047 107.521 15.3036 107.611 15.3825C107.702 15.4614 107.818 15.5169 107.947 15.5419C108.076 15.5669 108.211 15.5603 108.335 15.523C108.46 15.4857 108.568 15.4194 108.646 15.3323C108.724 15.2452 108.768 15.1412 108.774 15.0336C108.777 14.9615 108.763 14.8896 108.733 14.8219C108.702 14.7543 108.655 14.6922 108.595 14.6394C108.534 14.5866 108.462 14.544 108.381 14.5141C108.3 14.4842 108.213 14.4677 108.125 14.4654Z" fill="white"/>
<path d="M109.582 15.7449C109.412 15.7504 109.251 15.8077 109.131 15.9054C109.011 16.0032 108.94 16.1341 108.933 16.2723C108.926 16.4105 108.983 16.5458 109.094 16.6511C109.204 16.7565 109.358 16.8243 109.527 16.8411C109.697 16.8356 109.858 16.7783 109.979 16.6805C110.099 16.5828 110.169 16.4518 110.176 16.3136C110.183 16.1754 110.126 16.0402 110.016 15.9348C109.906 15.8294 109.751 15.7616 109.582 15.7449Z" fill="white"/>
<path d="M111.034 17.029C110.901 17.022 110.769 17.0474 110.653 17.1019C110.538 17.1565 110.446 17.2377 110.387 17.3353C110.329 17.4329 110.308 17.5423 110.326 17.6497C110.345 17.7571 110.403 17.8576 110.492 17.9383C110.581 18.019 110.697 18.0763 110.827 18.1029C110.956 18.1295 111.092 18.1241 111.217 18.0875C111.343 18.0509 111.452 17.9847 111.531 17.8974C111.61 17.8101 111.656 17.7056 111.661 17.5972C111.669 17.4546 111.608 17.3153 111.49 17.2091C111.373 17.1028 111.209 17.0382 111.034 17.029Z" fill="white"/>
<path d="M112.492 18.3088C112.404 18.3052 112.315 18.3159 112.232 18.3404C112.149 18.3649 112.073 18.4026 112.008 18.4513C111.943 18.5001 111.89 18.5588 111.853 18.6243C111.817 18.6897 111.796 18.7604 111.793 18.8323C111.788 18.9401 111.822 19.0468 111.891 19.1389C111.961 19.231 112.062 19.3043 112.182 19.3496C112.303 19.3949 112.437 19.4102 112.568 19.3934C112.699 19.3767 112.821 19.3288 112.919 19.2556C113.016 19.1825 113.085 19.0875 113.116 18.9826C113.147 18.8777 113.14 18.7677 113.094 18.6663C113.048 18.565 112.967 18.4769 112.86 18.4133C112.752 18.3497 112.625 18.3133 112.492 18.3088Z" fill="white"/>
<path d="M113.895 20.6847C114.028 20.6882 114.16 20.6594 114.273 20.6018C114.386 20.5442 114.475 20.4605 114.53 20.3614C114.584 20.2623 114.601 20.1523 114.578 20.0454C114.555 19.9385 114.493 19.8395 114.401 19.7612C114.309 19.6829 114.19 19.6288 114.059 19.6057C113.929 19.5827 113.793 19.5917 113.669 19.6318C113.545 19.6718 113.439 19.741 113.363 19.8306C113.288 19.9201 113.247 20.0258 113.246 20.1344C113.245 20.2765 113.313 20.4132 113.434 20.5158C113.555 20.6184 113.72 20.6789 113.895 20.6847Z" fill="white"/>
<path d="M4.7742 40.6487C4.64016 40.6487 4.50913 40.6811 4.39776 40.7418C4.28638 40.8024 4.19967 40.8887 4.14863 40.9895C4.09758 41.0903 4.08451 41.2012 4.11106 41.3081C4.13762 41.4149 4.2026 41.513 4.29778 41.5898C4.39295 41.6666 4.51401 41.7186 4.64562 41.7393C4.77722 41.7601 4.91342 41.7485 5.03695 41.7062C5.16048 41.6638 5.26576 41.5926 5.33943 41.5015C5.41311 41.4104 5.45186 41.3036 5.45077 41.1946C5.45078 41.1225 5.43324 41.0512 5.39917 40.9846C5.3651 40.9181 5.31518 40.8577 5.25228 40.807C5.18938 40.7562 5.11475 40.7161 5.0327 40.689C4.95065 40.6618 4.86279 40.6481 4.7742 40.6487Z" fill="white"/>
<path d="M6.87004 41.7404C7.24066 41.7404 7.54111 41.496 7.54111 41.1945C7.54111 40.8931 7.24066 40.6487 6.87004 40.6487C6.49942 40.6487 6.19897 40.8931 6.19897 41.1945C6.19897 41.496 6.49942 41.7404 6.87004 41.7404Z" fill="white"/>
<path d="M8.96623 41.7404C9.33686 41.7404 9.6373 41.496 9.6373 41.1945C9.6373 40.8931 9.33686 40.6487 8.96623 40.6487C8.59561 40.6487 8.29517 40.8931 8.29517 41.1945C8.29517 41.496 8.59561 41.7404 8.96623 41.7404Z" fill="white"/>
<path d="M11.0564 40.6487C10.9224 40.6487 10.7914 40.6811 10.68 40.7418C10.5686 40.8024 10.4819 40.8887 10.4309 40.9895C10.3798 41.0903 10.3667 41.2012 10.3933 41.3081C10.4198 41.4149 10.4848 41.513 10.58 41.5898C10.6752 41.6666 10.7962 41.7186 10.9278 41.7393C11.0594 41.7601 11.1956 41.7485 11.3192 41.7062C11.4427 41.6638 11.548 41.5926 11.6217 41.5015C11.6953 41.4104 11.7341 41.3036 11.733 41.1946C11.733 41.1225 11.7155 41.0512 11.6814 40.9846C11.6473 40.9181 11.5974 40.8577 11.5345 40.807C11.4716 40.7562 11.397 40.7161 11.3149 40.689C11.2329 40.6618 11.145 40.6481 11.0564 40.6487Z" fill="white"/>
<path d="M13.152 41.7404C13.5226 41.7404 13.8231 41.496 13.8231 41.1945C13.8231 40.8931 13.5226 40.6487 13.152 40.6487C12.7814 40.6487 12.481 40.8931 12.481 41.1945C12.481 41.496 12.7814 41.7404 13.152 41.7404Z" fill="white"/>
<path d="M15.2477 41.7404C15.6184 41.7404 15.9188 41.496 15.9188 41.1945C15.9188 40.8931 15.6184 40.6487 15.2477 40.6487C14.8771 40.6487 14.5767 40.8931 14.5767 41.1945C14.5767 41.496 14.8771 41.7404 15.2477 41.7404Z" fill="white"/>
<path d="M17.3432 40.6487C17.2089 40.6478 17.0773 40.6795 16.9652 40.7396C16.8531 40.7997 16.7656 40.8856 16.7137 40.9864C16.6618 41.0871 16.6479 41.1981 16.6739 41.3053C16.6998 41.4125 16.7643 41.5109 16.8593 41.5882C16.9542 41.6654 17.0753 41.7179 17.2071 41.739C17.3388 41.7601 17.4753 41.7488 17.5991 41.7066C17.723 41.6644 17.8286 41.5932 17.9025 41.502C17.9764 41.4108 18.0153 41.3038 18.0143 41.1946C18.0128 41.0502 17.9416 40.912 17.8161 40.8099C17.6906 40.7078 17.5207 40.6499 17.3432 40.6487Z" fill="white"/>
<path d="M19.4335 41.7404C19.8041 41.7404 20.1046 41.496 20.1046 41.1945C20.1046 40.8931 19.8041 40.6487 19.4335 40.6487C19.0629 40.6487 18.7625 40.8931 18.7625 41.1945C18.7625 41.496 19.0629 41.7404 19.4335 41.7404Z" fill="white"/>
<path d="M21.5292 41.7404C21.8998 41.7404 22.2003 41.496 22.2003 41.1945C22.2003 40.8931 21.8998 40.6487 21.5292 40.6487C21.1586 40.6487 20.8582 40.8931 20.8582 41.1945C20.8582 41.496 21.1586 41.7404 21.5292 41.7404Z" fill="white"/>
<path d="M23.6523 40.6487C23.518 40.6478 23.3864 40.6795 23.2743 40.7396C23.1622 40.7997 23.0747 40.8856 23.0228 40.9864C22.9709 41.0871 22.957 41.1981 22.9829 41.3053C23.0089 41.4125 23.0734 41.5109 23.1684 41.5882C23.2633 41.6654 23.3844 41.7179 23.5161 41.739C23.6479 41.7601 23.7844 41.7488 23.9082 41.7066C24.0321 41.6644 24.1377 41.5932 24.2116 41.502C24.2855 41.4108 24.3244 41.3038 24.3233 41.1946C24.3233 41.0498 24.2526 40.9109 24.1268 40.8086C24.0009 40.7062 23.8302 40.6487 23.6523 40.6487Z" fill="white"/>
<path d="M25.7209 41.7404C26.0915 41.7404 26.3919 41.496 26.3919 41.1945C26.3919 40.8931 26.0915 40.6487 25.7209 40.6487C25.3503 40.6487 25.0498 40.8931 25.0498 41.1945C25.0498 41.496 25.3503 41.7404 25.7209 41.7404Z" fill="white"/>
<path d="M27.811 41.7404C28.1816 41.7404 28.482 41.496 28.482 41.1945C28.482 40.8931 28.1816 40.6487 27.811 40.6487C27.4403 40.6487 27.1399 40.8931 27.1399 41.1945C27.1399 41.496 27.4403 41.7404 27.811 41.7404Z" fill="white"/>
<path d="M29.9068 40.6487C29.7727 40.6487 29.6417 40.6811 29.5303 40.7418C29.4189 40.8024 29.3322 40.8887 29.2812 40.9895C29.2302 41.0903 29.2171 41.2012 29.2436 41.3081C29.2702 41.4149 29.3352 41.513 29.4303 41.5898C29.5255 41.6666 29.6466 41.7186 29.7782 41.7393C29.9098 41.7601 30.046 41.7485 30.1695 41.7062C30.293 41.6638 30.3983 41.5926 30.472 41.5015C30.5457 41.4104 30.5844 41.3036 30.5833 41.1946C30.5833 41.1225 30.5658 41.0512 30.5317 40.9846C30.4977 40.9181 30.4477 40.8577 30.3849 40.807C30.322 40.7562 30.2473 40.7161 30.1653 40.689C30.0832 40.6618 29.9954 40.6481 29.9068 40.6487Z" fill="white"/>
<path d="M32.0021 41.7404C32.3727 41.7404 32.6732 41.496 32.6732 41.1945C32.6732 40.8931 32.3727 40.6487 32.0021 40.6487C31.6315 40.6487 31.3311 40.8931 31.3311 41.1945C31.3311 41.496 31.6315 41.7404 32.0021 41.7404Z" fill="white"/>
<path d="M34.1037 40.6487C33.9694 40.6478 33.8378 40.6795 33.7257 40.7396C33.6136 40.7997 33.5261 40.8856 33.4742 40.9864C33.4223 41.0871 33.4084 41.1981 33.4344 41.3053C33.4603 41.4125 33.5248 41.5109 33.6198 41.5882C33.7147 41.6654 33.8358 41.7179 33.9676 41.739C34.0993 41.7601 34.2358 41.7488 34.3596 41.7066C34.4835 41.6644 34.5891 41.5932 34.663 41.502C34.7369 41.4108 34.7758 41.3038 34.7747 41.1946C34.7733 41.0502 34.7021 40.912 34.5766 40.8099C34.4511 40.7078 34.2812 40.6499 34.1037 40.6487Z" fill="white"/>
<path d="M36.1882 41.7404C36.5588 41.7404 36.8592 41.496 36.8592 41.1945C36.8592 40.8931 36.5588 40.6487 36.1882 40.6487C35.8175 40.6487 35.5171 40.8931 35.5171 41.1945C35.5171 41.496 35.8175 41.7404 36.1882 41.7404Z" fill="white"/>
<path d="M38.2839 41.7404C38.6545 41.7404 38.9549 41.496 38.9549 41.1945C38.9549 40.8931 38.6545 40.6487 38.2839 40.6487C37.9132 40.6487 37.6128 40.8931 37.6128 41.1945C37.6128 41.496 37.9132 41.7404 38.2839 41.7404Z" fill="white"/>
<path d="M40.3796 40.6487C40.2453 40.6478 40.1137 40.6795 40.0016 40.7396C39.8895 40.7997 39.802 40.8856 39.7501 40.9864C39.6982 41.0871 39.6843 41.1981 39.7102 41.3053C39.7362 41.4125 39.8007 41.5109 39.8957 41.5882C39.9906 41.6654 40.1117 41.7179 40.2434 41.739C40.3752 41.7601 40.5117 41.7488 40.6355 41.7066C40.7594 41.6644 40.865 41.5932 40.9389 41.502C41.0128 41.4108 41.0517 41.3038 41.0506 41.1946C41.0492 41.0502 40.978 40.912 40.8525 40.8099C40.7269 40.7078 40.5571 40.6499 40.3796 40.6487Z" fill="white"/>
<path d="M42.4753 41.7404C42.8459 41.7404 43.1463 41.496 43.1463 41.1945C43.1463 40.8931 42.8459 40.6487 42.4753 40.6487C42.1046 40.6487 41.8042 40.8931 41.8042 41.1945C41.8042 41.496 42.1046 41.7404 42.4753 41.7404Z" fill="white"/>
<path d="M44.5658 41.7404C44.9365 41.7404 45.2369 41.496 45.2369 41.1945C45.2369 40.8931 44.9365 40.6487 44.5658 40.6487C44.1952 40.6487 43.8948 40.8931 43.8948 41.1945C43.8948 41.496 44.1952 41.7404 44.5658 41.7404Z" fill="white"/>
<path d="M3.42693 38.5102C3.79755 38.5102 4.098 38.2658 4.098 37.9643C4.098 37.6628 3.79755 37.4185 3.42693 37.4185C3.05631 37.4185 2.75586 37.6628 2.75586 37.9643C2.75586 38.2658 3.05631 38.5102 3.42693 38.5102Z" fill="white"/>
<path d="M3.42693 40.3222C3.79755 40.3222 4.098 40.0778 4.098 39.7763C4.098 39.4749 3.79755 39.2305 3.42693 39.2305C3.05631 39.2305 2.75586 39.4749 2.75586 39.7763C2.75586 40.0778 3.05631 40.3222 3.42693 40.3222Z" fill="white"/>
<path d="M3.42669 36.8053C3.55822 36.8044 3.68651 36.772 3.79562 36.7123C3.90473 36.6525 3.98985 36.568 4.04039 36.4692C4.09092 36.3704 4.10466 36.2617 4.07988 36.1567C4.0551 36.0516 3.99291 35.9547 3.90102 35.8782C3.80914 35.8016 3.69162 35.7487 3.56307 35.726C3.43452 35.7033 3.30062 35.7119 3.17799 35.7506C3.05537 35.7893 2.94944 35.8565 2.87337 35.9438C2.79729 36.0311 2.75444 36.1346 2.75012 36.2416C2.74715 36.3151 2.76249 36.3884 2.79523 36.457C2.82797 36.5256 2.87743 36.5881 2.94063 36.6408C3.00382 36.6934 3.07946 36.7352 3.16299 36.7634C3.24652 36.7917 3.33622 36.806 3.42669 36.8053Z" fill="white"/>
<path d="M3.42693 35.1008C3.79755 35.1008 4.098 34.8564 4.098 34.5549C4.098 34.2534 3.79755 34.009 3.42693 34.009C3.05631 34.009 2.75586 34.2534 2.75586 34.5549C2.75586 34.8564 3.05631 35.1008 3.42693 35.1008Z" fill="white"/>
<path d="M3.42693 33.4003C3.79755 33.4003 4.098 33.1559 4.098 32.8545C4.098 32.553 3.79755 32.3086 3.42693 32.3086C3.05631 32.3086 2.75586 32.553 2.75586 32.8545C2.75586 33.1559 3.05631 33.4003 3.42693 33.4003Z" fill="white"/>
<path d="M3.42659 31.6959C3.56064 31.6959 3.69166 31.6635 3.80304 31.6028C3.91442 31.5421 4.00113 31.4559 4.05217 31.3551C4.10321 31.2543 4.11629 31.1434 4.08973 31.0365C4.06318 30.9297 3.99819 30.8316 3.90302 30.7548C3.80785 30.678 3.68678 30.626 3.55518 30.6052C3.42358 30.5845 3.28737 30.5961 3.16385 30.6384C3.04032 30.6807 2.93504 30.752 2.86136 30.8431C2.78768 30.9342 2.74893 31.041 2.75002 31.15C2.75147 31.2952 2.82339 31.434 2.95012 31.5363C3.07684 31.6385 3.2481 31.6959 3.42659 31.6959Z" fill="white"/>
<path d="M3.42693 29.9911C3.79755 29.9911 4.098 29.7467 4.098 29.4453C4.098 29.1438 3.79755 28.8994 3.42693 28.8994C3.05631 28.8994 2.75586 29.1438 2.75586 29.4453C2.75586 29.7467 3.05631 29.9911 3.42693 29.9911Z" fill="white"/>
<path d="M3.42693 28.2863C3.79755 28.2863 4.098 28.0419 4.098 27.7404C4.098 27.439 3.79755 27.1946 3.42693 27.1946C3.05631 27.1946 2.75586 27.439 2.75586 27.7404C2.75586 28.0419 3.05631 28.2863 3.42693 28.2863Z" fill="white"/>
<path d="M3.42693 26.5861C3.79755 26.5861 4.098 26.3417 4.098 26.0402C4.098 25.7388 3.79755 25.4944 3.42693 25.4944C3.05631 25.4944 2.75586 25.7388 2.75586 26.0402C2.75586 26.3417 3.05631 26.5861 3.42693 26.5861Z" fill="white"/>
<path d="M3.42693 24.8813C3.79755 24.8813 4.098 24.6369 4.098 24.3354C4.098 24.0339 3.79755 23.7896 3.42693 23.7896C3.05631 23.7896 2.75586 24.0339 2.75586 24.3354C2.75586 24.6369 3.05631 24.8813 3.42693 24.8813Z" fill="white"/>
<path d="M3.42657 23.1767C3.55905 23.1758 3.68825 23.143 3.79788 23.0825C3.90752 23.022 3.99267 22.9364 4.04262 22.8366C4.09257 22.7368 4.10508 22.6272 4.07857 22.5216C4.05205 22.416 3.98771 22.3192 3.89365 22.2433C3.79958 22.1674 3.68 22.1158 3.54998 22.0951C3.41996 22.0744 3.28531 22.0855 3.16301 22.1269C3.04071 22.1684 2.93622 22.2383 2.86272 22.328C2.78923 22.4177 2.75 22.523 2.75 22.6308C2.75 22.7029 2.76754 22.7742 2.8016 22.8407C2.83567 22.9073 2.88559 22.9676 2.94849 23.0184C3.01139 23.0691 3.08602 23.1092 3.16807 23.1364C3.25013 23.1636 3.33798 23.1773 3.42657 23.1767Z" fill="white"/>
<path d="M3.42693 21.4721C3.79755 21.4721 4.098 21.2277 4.098 20.9262C4.098 20.6248 3.79755 20.3804 3.42693 20.3804C3.05631 20.3804 2.75586 20.6248 2.75586 20.9262C2.75586 21.2277 3.05631 21.4721 3.42693 21.4721Z" fill="white"/>
<path d="M3.42693 19.7719C3.79755 19.7719 4.098 19.5275 4.098 19.226C4.098 18.9246 3.79755 18.6802 3.42693 18.6802C3.05631 18.6802 2.75586 18.9246 2.75586 19.226C2.75586 19.5275 3.05631 19.7719 3.42693 19.7719Z" fill="white"/>
<path d="M3.42659 18.0672C3.56064 18.0672 3.69166 18.0348 3.80304 17.9742C3.91442 17.9135 4.00113 17.8273 4.05217 17.7264C4.10321 17.6256 4.11629 17.5147 4.08973 17.4079C4.06318 17.301 3.99819 17.2029 3.90302 17.1262C3.80785 17.0494 3.68678 16.9973 3.55518 16.9766C3.42358 16.9559 3.28737 16.9674 3.16385 17.0097C3.04032 17.0521 2.93504 17.1233 2.86136 17.2144C2.78768 17.3055 2.74893 17.4123 2.75002 17.5214C2.75147 17.6665 2.82339 17.8054 2.95012 17.9076C3.07684 18.0099 3.2481 18.0672 3.42659 18.0672Z" fill="white"/>
<path d="M3.42693 16.3625C3.79755 16.3625 4.098 16.1181 4.098 15.8166C4.098 15.5151 3.79755 15.2708 3.42693 15.2708C3.05631 15.2708 2.75586 15.5151 2.75586 15.8166C2.75586 16.1181 3.05631 16.3625 3.42693 16.3625Z" fill="white"/>
<path d="M3.42693 14.6576C3.79755 14.6576 4.098 14.4133 4.098 14.1118C4.098 13.8103 3.79755 13.5659 3.42693 13.5659C3.05631 13.5659 2.75586 13.8103 2.75586 14.1118C2.75586 14.4133 3.05631 14.6576 3.42693 14.6576Z" fill="white"/>
<path d="M3.42677 12.9754C3.55987 12.9754 3.69001 12.9434 3.80088 12.8835C3.91176 12.8236 3.99845 12.7385 4.05011 12.6387C4.10176 12.5389 4.11609 12.4289 4.0913 12.3226C4.0665 12.2162 4.00368 12.1181 3.91071 12.0407C3.81773 11.9632 3.69872 11.9097 3.56859 11.887C3.43845 11.8643 3.30297 11.8733 3.17909 11.9129C3.05521 11.9525 2.94845 12.0209 2.87216 12.1097C2.79587 12.1984 2.75345 12.3034 2.7502 12.4117C2.748 12.4851 2.76387 12.5581 2.79689 12.6264C2.8299 12.6947 2.87939 12.757 2.94243 12.8095C3.00548 12.8621 3.08081 12.9038 3.16399 12.9323C3.24717 12.9608 3.33652 12.9754 3.42677 12.9754Z" fill="white"/>
<path d="M3.42693 11.2529C3.79755 11.2529 4.098 11.0085 4.098 10.707C4.098 10.4055 3.79755 10.1611 3.42693 10.1611C3.05631 10.1611 2.75586 10.4055 2.75586 10.707C2.75586 11.0085 3.05631 11.2529 3.42693 11.2529Z" fill="white"/>
<path d="M3.42657 9.55258C3.56038 9.55258 3.69119 9.5203 3.80245 9.45983C3.91371 9.39936 4.00043 9.31341 4.05164 9.21284C4.10285 9.11228 4.11624 9.00163 4.09014 8.89488C4.06403 8.78812 3.9996 8.69006 3.90498 8.61309C3.81036 8.53613 3.6898 8.48371 3.55856 8.46248C3.42732 8.44124 3.29128 8.45214 3.16766 8.4938C3.04403 8.53545 2.93837 8.60599 2.86402 8.69649C2.78968 8.78699 2.75 8.89339 2.75 9.00224C2.75 9.07451 2.7675 9.14607 2.8015 9.21284C2.8355 9.27961 2.88534 9.34028 2.94816 9.39139C3.01099 9.44249 3.08557 9.48303 3.16766 9.51068C3.24974 9.53834 3.33772 9.55258 3.42657 9.55258Z" fill="white"/>
<path d="M3.42657 7.84774C3.56038 7.84774 3.69119 7.81547 3.80245 7.75499C3.91371 7.69452 4.00043 7.60857 4.05164 7.50801C4.10285 7.40745 4.11624 7.2968 4.09014 7.19004C4.06403 7.08329 3.9996 6.98523 3.90498 6.90826C3.81036 6.83129 3.6898 6.77888 3.55856 6.75765C3.42732 6.73641 3.29128 6.74731 3.16766 6.78896C3.04403 6.83062 2.93837 6.90115 2.86402 6.99166C2.78968 7.08216 2.75 7.18856 2.75 7.29741C2.75 7.36968 2.7675 7.44124 2.8015 7.50801C2.8355 7.57478 2.88534 7.63545 2.94816 7.68655C3.01099 7.73766 3.08557 7.77819 3.16766 7.80585C3.24974 7.83351 3.33772 7.84774 3.42657 7.84774Z" fill="white"/>
<path d="M3.42693 6.14324C3.79755 6.14324 4.098 5.89885 4.098 5.59738C4.098 5.2959 3.79755 5.05151 3.42693 5.05151C3.05631 5.05151 2.75586 5.2959 2.75586 5.59738C2.75586 5.89885 3.05631 6.14324 3.42693 6.14324Z" fill="white"/>
<path d="M3.42693 4.51018C3.79755 4.51018 4.098 4.26579 4.098 3.96432C4.098 3.66285 3.79755 3.41846 3.42693 3.41846C3.05631 3.41846 2.75586 3.66285 2.75586 3.96432C2.75586 4.26579 3.05631 4.51018 3.42693 4.51018Z" fill="white"/>
<path d="M46.6613 40.6487C46.527 40.6478 46.3955 40.6795 46.2834 40.7396C46.1713 40.7997 46.0837 40.8856 46.0318 40.9864C45.9799 41.0871 45.9661 41.1981 45.992 41.3053C46.0179 41.4125 46.0825 41.5109 46.1774 41.5882C46.2724 41.6654 46.3934 41.7179 46.5252 41.739C46.6569 41.7601 46.7934 41.7488 46.9173 41.7066C47.0411 41.6644 47.1467 41.5932 47.2206 41.502C47.2946 41.4108 47.3335 41.3038 47.3324 41.1946C47.3324 41.0498 47.2617 40.9109 47.1358 40.8086C47.01 40.7062 46.8393 40.6487 46.6613 40.6487Z" fill="white"/>
<path d="M48.757 41.7404C49.1276 41.7404 49.4281 41.496 49.4281 41.1945C49.4281 40.8931 49.1276 40.6487 48.757 40.6487C48.3864 40.6487 48.0859 40.8931 48.0859 41.1945C48.0859 41.496 48.3864 41.7404 48.757 41.7404Z" fill="white"/>
<path d="M50.8527 41.7404C51.2233 41.7404 51.5238 41.496 51.5238 41.1945C51.5238 40.8931 51.2233 40.6487 50.8527 40.6487C50.4821 40.6487 50.1816 40.8931 50.1816 41.1945C50.1816 41.496 50.4821 41.7404 50.8527 41.7404Z" fill="white"/>
<path d="M52.9429 40.6487C52.8089 40.6487 52.6778 40.6811 52.5665 40.7418C52.4551 40.8024 52.3684 40.8887 52.3173 40.9895C52.2663 41.0903 52.2532 41.2012 52.2798 41.3081C52.3063 41.4149 52.3713 41.513 52.4665 41.5898C52.5616 41.6666 52.6827 41.7186 52.8143 41.7393C52.9459 41.7601 53.0821 41.7485 53.2056 41.7062C53.3292 41.6638 53.4345 41.5926 53.5081 41.5015C53.5818 41.4104 53.6206 41.3036 53.6195 41.1946C53.6195 41.1225 53.6019 41.0512 53.5679 40.9846C53.5338 40.9181 53.4839 40.8577 53.421 40.807C53.3581 40.7562 53.2835 40.7161 53.2014 40.689C53.1193 40.6618 53.0315 40.6481 52.9429 40.6487Z" fill="white"/>
<path d="M55.0385 41.7404C55.4091 41.7404 55.7096 41.496 55.7096 41.1945C55.7096 40.8931 55.4091 40.6487 55.0385 40.6487C54.6679 40.6487 54.3674 40.8931 54.3674 41.1945C54.3674 41.496 54.6679 41.7404 55.0385 41.7404Z" fill="white"/>
<path d="M57.1344 41.7404C57.5051 41.7404 57.8055 41.496 57.8055 41.1945C57.8055 40.8931 57.5051 40.6487 57.1344 40.6487C56.7638 40.6487 56.4634 40.8931 56.4634 41.1945C56.4634 41.496 56.7638 41.7404 57.1344 41.7404Z" fill="white"/>
<path d="M59.2299 40.6487C59.0956 40.6478 58.9641 40.6795 58.852 40.7396C58.7399 40.7997 58.6523 40.8856 58.6004 40.9864C58.5485 41.0871 58.5347 41.1981 58.5606 41.3053C58.5865 41.4125 58.6511 41.5109 58.746 41.5882C58.841 41.6654 58.962 41.7179 59.0938 41.739C59.2255 41.7601 59.362 41.7488 59.4859 41.7066C59.6097 41.6644 59.7153 41.5932 59.7892 41.502C59.8632 41.4108 59.9021 41.3038 59.901 41.1946C59.8995 41.0502 59.8284 40.912 59.7028 40.8099C59.5773 40.7078 59.4074 40.6499 59.2299 40.6487Z" fill="white"/>
<path d="M61.3202 41.7404C61.6909 41.7404 61.9913 41.496 61.9913 41.1945C61.9913 40.8931 61.6909 40.6487 61.3202 40.6487C60.9496 40.6487 60.6492 40.8931 60.6492 41.1945C60.6492 41.496 60.9496 41.7404 61.3202 41.7404Z" fill="white"/>
<path d="M63.4325 41.7404C63.8032 41.7404 64.1036 41.496 64.1036 41.1945C64.1036 40.8931 63.8032 40.6487 63.4325 40.6487C63.0619 40.6487 62.7615 40.8931 62.7615 41.1945C62.7615 41.496 63.0619 41.7404 63.4325 41.7404Z" fill="white"/>
<path d="M65.5392 41.7404C65.9099 41.7404 66.2103 41.496 66.2103 41.1945C66.2103 40.8931 65.9099 40.6487 65.5392 40.6487C65.1686 40.6487 64.8682 40.8931 64.8682 41.1945C64.8682 41.496 65.1686 41.7404 65.5392 41.7404Z" fill="white"/>
<path d="M67.6571 40.6487C67.5229 40.6478 67.3913 40.6795 67.2792 40.7396C67.1671 40.7997 67.0795 40.8856 67.0277 40.9864C66.9758 41.0871 66.9619 41.1981 66.9878 41.3053C67.0138 41.4125 67.0783 41.5109 67.1733 41.5882C67.2682 41.6654 67.3893 41.7179 67.521 41.739C67.6528 41.7601 67.7893 41.7488 67.9131 41.7066C68.037 41.6644 68.1426 41.5932 68.2165 41.502C68.2904 41.4108 68.3293 41.3038 68.3282 41.1946C68.3268 41.0502 68.2556 40.912 68.1301 40.8099C68.0045 40.7078 67.8347 40.6499 67.6571 40.6487Z" fill="white"/>
<path d="M69.7582 41.7404C70.1288 41.7404 70.4293 41.496 70.4293 41.1945C70.4293 40.8931 70.1288 40.6487 69.7582 40.6487C69.3876 40.6487 69.0872 40.8931 69.0872 41.1945C69.0872 41.496 69.3876 41.7404 69.7582 41.7404Z" fill="white"/>
<path d="M71.8647 41.7404C72.2353 41.7404 72.5357 41.496 72.5357 41.1945C72.5357 40.8931 72.2353 40.6487 71.8647 40.6487C71.4941 40.6487 71.1936 40.8931 71.1936 41.1945C71.1936 41.496 71.4941 41.7404 71.8647 41.7404Z" fill="white"/>
<path d="M73.9772 41.7404C74.3478 41.7404 74.6483 41.496 74.6483 41.1945C74.6483 40.8931 74.3478 40.6487 73.9772 40.6487C73.6066 40.6487 73.3062 40.8931 73.3062 41.1945C73.3062 41.496 73.6066 41.7404 73.9772 41.7404Z" fill="white"/>
<path d="M76.0839 41.7404C76.4545 41.7404 76.755 41.496 76.755 41.1945C76.755 40.8931 76.4545 40.6487 76.0839 40.6487C75.7133 40.6487 75.4128 40.8931 75.4128 41.1945C75.4128 41.496 75.7133 41.7404 76.0839 41.7404Z" fill="white"/>
<path d="M78.1962 40.6487C78.0619 40.6478 77.9304 40.6795 77.8183 40.7396C77.7062 40.7997 77.6186 40.8856 77.5667 40.9864C77.5148 41.0871 77.501 41.1981 77.5269 41.3053C77.5528 41.4125 77.6174 41.5109 77.7123 41.5882C77.8073 41.6654 77.9283 41.7179 78.0601 41.739C78.1918 41.7601 78.3283 41.7488 78.4522 41.7066C78.576 41.6644 78.6816 41.5932 78.7556 41.502C78.8295 41.4108 78.8684 41.3038 78.8673 41.1946C78.8658 41.0502 78.7947 40.912 78.6691 40.8099C78.5436 40.7078 78.3737 40.6499 78.1962 40.6487Z" fill="white"/>
<path d="M80.308 40.6487C80.1738 40.6478 80.0422 40.6795 79.9301 40.7396C79.818 40.7997 79.7304 40.8856 79.6785 40.9864C79.6266 41.0871 79.6128 41.1981 79.6387 41.3053C79.6646 41.4125 79.7292 41.5109 79.8241 41.5882C79.9191 41.6654 80.0401 41.7179 80.1719 41.739C80.3036 41.7601 80.4401 41.7488 80.564 41.7066C80.6878 41.6644 80.7934 41.5932 80.8674 41.502C80.9413 41.4108 80.9802 41.3038 80.9791 41.1946C80.9791 41.0498 80.9084 40.9109 80.7825 40.8086C80.6567 40.7062 80.486 40.6487 80.308 40.6487Z" fill="white"/>
<path d="M82.415 40.6487C82.2807 40.6478 82.1491 40.6795 82.037 40.7396C81.9249 40.7997 81.8374 40.8856 81.7855 40.9864C81.7336 41.0871 81.7197 41.1981 81.7456 41.3053C81.7716 41.4125 81.8361 41.5109 81.9311 41.5882C82.026 41.6654 82.1471 41.7179 82.2788 41.739C82.4106 41.7601 82.5471 41.7488 82.6709 41.7066C82.7948 41.6644 82.9004 41.5932 82.9743 41.502C83.0482 41.4108 83.0871 41.3038 83.086 41.1946C83.0846 41.0502 83.0134 40.912 82.8879 40.8099C82.7624 40.7078 82.5925 40.6499 82.415 40.6487Z" fill="white"/>
<path d="M84.5217 41.7404C84.8923 41.7404 85.1927 41.496 85.1927 41.1945C85.1927 40.8931 84.8923 40.6487 84.5217 40.6487C84.151 40.6487 83.8506 40.8931 83.8506 41.1945C83.8506 41.496 84.151 41.7404 84.5217 41.7404Z" fill="white"/>
<path d="M86.6285 41.7404C86.9991 41.7404 87.2995 41.496 87.2995 41.1945C87.2995 40.8931 86.9991 40.6487 86.6285 40.6487C86.2578 40.6487 85.9574 40.8931 85.9574 41.1945C85.9574 41.496 86.2578 41.7404 86.6285 41.7404Z" fill="white"/>
<path d="M88.7408 41.7404C89.1114 41.7404 89.4118 41.496 89.4118 41.1945C89.4118 40.8931 89.1114 40.6487 88.7408 40.6487C88.3702 40.6487 88.0697 40.8931 88.0697 41.1945C88.0697 41.496 88.3702 41.7404 88.7408 41.7404Z" fill="white"/>
<path d="M90.8473 40.6487C90.7133 40.6487 90.5822 40.6811 90.4709 40.7418C90.3595 40.8024 90.2728 40.8887 90.2217 40.9895C90.1707 41.0903 90.1576 41.2012 90.1842 41.3081C90.2107 41.4149 90.2757 41.513 90.3709 41.5898C90.4661 41.6666 90.5871 41.7186 90.7187 41.7393C90.8503 41.7601 90.9865 41.7485 91.1101 41.7062C91.2336 41.6638 91.3389 41.5926 91.4126 41.5015C91.4862 41.4104 91.525 41.3036 91.5239 41.1946C91.5239 41.1225 91.5064 41.0512 91.4723 40.9846C91.4382 40.9181 91.3883 40.8577 91.3254 40.807C91.2625 40.7562 91.1879 40.7161 91.1058 40.689C91.0238 40.6618 90.9359 40.6481 90.8473 40.6487Z" fill="white"/>
<path d="M92.9596 41.7404C93.3303 41.7404 93.6307 41.496 93.6307 41.1945C93.6307 40.8931 93.3303 40.6487 92.9596 40.6487C92.589 40.6487 92.2886 40.8931 92.2886 41.1945C92.2886 41.496 92.589 41.7404 92.9596 41.7404Z" fill="white"/>
<path d="M94.9673 39.8433C94.833 39.8424 94.7015 39.874 94.5894 39.9342C94.4773 39.9943 94.3897 40.0802 94.3378 40.1809C94.2859 40.2817 94.2721 40.3927 94.298 40.4999C94.3239 40.607 94.3885 40.7055 94.4834 40.7827C94.5784 40.86 94.6994 40.9125 94.8312 40.9336C94.963 40.9547 95.0994 40.9434 95.2233 40.9012C95.3471 40.859 95.4527 40.7877 95.5267 40.6966C95.6006 40.6054 95.6395 40.4984 95.6384 40.3891C95.637 40.2447 95.5658 40.1066 95.4403 40.0044C95.3147 39.9023 95.1449 39.8444 94.9673 39.8433Z" fill="white"/>
<path d="M96.4305 38.5369C96.3424 38.5399 96.2558 38.5569 96.1758 38.587C96.0958 38.6172 96.0238 38.6599 95.964 38.7126C95.9043 38.7654 95.8579 38.8272 95.8275 38.8946C95.7971 38.9619 95.7833 39.0335 95.7869 39.1052C95.7906 39.1769 95.8115 39.2473 95.8485 39.3124C95.8856 39.3775 95.9381 39.436 96.0029 39.4846C96.0678 39.5332 96.1438 39.571 96.2266 39.5957C96.3094 39.6204 96.3974 39.6316 96.4855 39.6287C96.5739 39.6264 96.6608 39.6098 96.7412 39.5799C96.8217 39.5499 96.8939 39.5073 96.9539 39.4544C97.0138 39.4015 97.0601 39.3394 97.0902 39.2717C97.1203 39.2041 97.1335 39.1323 97.1291 39.0604C97.1205 38.916 97.0424 38.7802 96.9117 38.6822C96.781 38.5842 96.6081 38.5321 96.4305 38.5369Z" fill="white"/>
<path d="M97.9101 37.2529C97.7765 37.2574 97.6475 37.2941 97.5394 37.3582C97.4313 37.4223 97.3491 37.5111 97.303 37.6132C97.2569 37.7154 97.2491 37.8263 97.2805 37.9321C97.312 38.0378 97.3812 38.1337 97.4796 38.2074C97.5779 38.2812 97.701 38.3295 97.8331 38.3464C97.9652 38.3633 98.1006 38.348 98.222 38.3023C98.3434 38.2567 98.4455 38.1828 98.5153 38.09C98.5851 37.9972 98.6195 37.8896 98.6142 37.7809C98.6107 37.7086 98.5896 37.6376 98.5523 37.5719C98.515 37.5062 98.4621 37.4472 98.3968 37.3981C98.3314 37.3491 98.2547 37.311 98.1712 37.2861C98.0877 37.2612 97.999 37.2499 97.9101 37.2529Z" fill="white"/>
<path d="M99.3401 35.9732C99.2075 35.9777 99.0795 36.0141 98.9724 36.0777C98.8652 36.1414 98.7837 36.2294 98.738 36.3307C98.6923 36.4321 98.6846 36.5421 98.7159 36.647C98.7471 36.7519 98.8158 36.8469 98.9134 36.9201C99.011 36.9932 99.133 37.0411 99.2641 37.0579C99.3952 37.0746 99.5294 37.0593 99.6498 37.014C99.7702 36.9687 99.8714 36.8954 99.9406 36.8033C100.01 36.7112 100.044 36.6045 100.039 36.4967C100.03 36.3523 99.952 36.2164 99.8212 36.1185C99.6905 36.0205 99.5177 35.9683 99.3401 35.9732Z" fill="white"/>
<path d="M100.798 34.689C100.664 34.6927 100.534 34.7286 100.425 34.7922C100.317 34.8558 100.233 34.9443 100.186 35.0464C100.14 35.1485 100.131 35.2596 100.162 35.3657C100.193 35.4718 100.262 35.568 100.36 35.6422C100.458 35.7164 100.581 35.7652 100.713 35.7825C100.846 35.7997 100.981 35.7846 101.103 35.739C101.225 35.6935 101.327 35.6196 101.397 35.5266C101.467 35.4337 101.502 35.3259 101.496 35.217C101.489 35.0718 101.412 34.9348 101.281 34.8359C101.15 34.737 100.976 34.6842 100.798 34.689Z" fill="white"/>
<path d="M102.25 33.4094C102.073 33.4163 101.905 33.4799 101.785 33.5862C101.665 33.6925 101.6 33.8331 101.606 33.9776C101.612 34.0854 101.657 34.1895 101.735 34.2767C101.813 34.3638 101.921 34.4302 102.046 34.4673C102.171 34.5045 102.306 34.5107 102.435 34.4853C102.564 34.4599 102.681 34.404 102.77 34.3246C102.86 34.2453 102.919 34.146 102.94 34.0394C102.96 33.9328 102.942 33.8236 102.886 33.7256C102.83 33.6277 102.74 33.5454 102.627 33.4891C102.514 33.4328 102.383 33.405 102.25 33.4094Z" fill="white"/>
<path d="M103.708 32.1252C103.574 32.1287 103.445 32.1643 103.336 32.2275C103.228 32.2907 103.145 32.3787 103.097 32.4802C103.05 32.5818 103.041 32.6925 103.071 32.7984C103.1 32.9043 103.168 33.0006 103.265 33.0752C103.362 33.1498 103.484 33.1994 103.616 33.2177C103.748 33.236 103.883 33.2222 104.005 33.178C104.127 33.1338 104.23 33.0612 104.302 32.9694C104.373 32.8776 104.409 32.7707 104.406 32.6621C104.401 32.5157 104.324 32.3771 104.193 32.2765C104.062 32.176 103.888 32.1216 103.708 32.1252Z" fill="white"/>
<path d="M105.16 30.8457C104.981 30.8515 104.813 30.9145 104.691 31.0209C104.569 31.1274 104.505 31.2687 104.511 31.4139C104.516 31.5217 104.561 31.6258 104.639 31.7129C104.717 31.8001 104.825 31.8665 104.95 31.9036C105.075 31.9407 105.21 31.947 105.339 31.9216C105.468 31.8962 105.585 31.8403 105.675 31.7609C105.764 31.6816 105.823 31.5823 105.844 31.4757C105.865 31.369 105.846 31.2599 105.79 31.1619C105.734 31.064 105.644 30.9816 105.531 30.9253C105.418 30.8691 105.287 30.8413 105.154 30.8457H105.16Z" fill="white"/>
<path d="M106.618 29.5615C106.484 29.5651 106.354 29.601 106.245 29.6646C106.136 29.7282 106.053 29.8167 106.006 29.9188C105.959 30.0209 105.951 30.1321 105.982 30.2381C106.013 30.3442 106.081 30.4405 106.18 30.5147C106.278 30.5889 106.401 30.6377 106.533 30.6549C106.665 30.6721 106.801 30.657 106.923 30.6115C107.045 30.5659 107.147 30.492 107.217 30.399C107.287 30.3061 107.321 30.1983 107.316 30.0894C107.308 29.9446 107.23 29.8083 107.099 29.7096C106.969 29.611 106.796 29.5578 106.618 29.5615Z" fill="white"/>
<path d="M108.07 28.282C107.936 28.2865 107.807 28.3233 107.698 28.3877C107.59 28.452 107.508 28.541 107.462 28.6435C107.416 28.7459 107.409 28.857 107.441 28.9629C107.473 29.0687 107.543 29.1645 107.641 29.238C107.74 29.3116 107.864 29.3596 107.996 29.3759C108.129 29.3923 108.264 29.3763 108.386 29.33C108.507 29.2836 108.608 29.209 108.678 29.1157C108.747 29.0223 108.78 28.9143 108.774 28.8055C108.765 28.6603 108.686 28.5237 108.554 28.4256C108.423 28.3275 108.248 28.2759 108.07 28.282Z" fill="white"/>
<path d="M109.527 26.9978C109.393 27.0014 109.264 27.0373 109.155 27.1009C109.046 27.1646 108.963 27.253 108.916 27.3551C108.869 27.4573 108.86 27.5684 108.891 27.6745C108.922 27.7805 108.991 27.8768 109.089 27.951C109.187 28.0252 109.31 28.074 109.443 28.0912C109.575 28.1085 109.711 28.0933 109.832 28.0478C109.954 28.0022 110.056 27.9283 110.126 27.8354C110.197 27.7424 110.231 27.6347 110.226 27.5257C110.223 27.4537 110.202 27.3827 110.166 27.3171C110.129 27.2515 110.077 27.1924 110.012 27.1433C109.947 27.0942 109.87 27.0561 109.787 27.0311C109.704 27.0061 109.616 26.9948 109.527 26.9978Z" fill="white"/>
<path d="M110.985 25.718C110.85 25.7181 110.718 25.7512 110.606 25.813C110.494 25.8747 110.408 25.9623 110.357 26.0644C110.307 26.1666 110.296 26.2786 110.325 26.386C110.354 26.4934 110.422 26.5913 110.52 26.6671C110.618 26.7429 110.741 26.7931 110.874 26.8112C111.008 26.8293 111.145 26.8145 111.268 26.7687C111.391 26.7229 111.494 26.6482 111.564 26.5542C111.634 26.4603 111.668 26.3513 111.662 26.2415C111.653 26.1003 111.578 25.9671 111.452 25.8696C111.326 25.7721 111.159 25.7178 110.985 25.718Z" fill="white"/>
<path d="M112.437 24.4341C112.258 24.441 112.091 24.5052 111.97 24.6125C111.849 24.7198 111.786 24.8615 111.793 25.0068C111.796 25.0787 111.817 25.1494 111.853 25.2148C111.89 25.2802 111.943 25.339 112.008 25.3877C112.073 25.4365 112.149 25.4742 112.232 25.4987C112.315 25.5231 112.404 25.5339 112.492 25.5303C112.661 25.5135 112.816 25.4457 112.926 25.3404C113.036 25.235 113.093 25.0997 113.086 24.9615C113.079 24.8234 113.009 24.6924 112.888 24.5946C112.768 24.4969 112.607 24.4396 112.437 24.4341Z" fill="white"/>
<path d="M113.895 23.1544C113.761 23.158 113.631 23.1941 113.522 23.2579C113.413 23.3218 113.33 23.4105 113.283 23.5129C113.237 23.6153 113.228 23.7266 113.26 23.8328C113.291 23.939 113.361 24.0352 113.459 24.1091C113.558 24.1831 113.682 24.2315 113.814 24.2482C113.947 24.265 114.083 24.2492 114.204 24.2029C114.326 24.1567 114.428 24.0821 114.497 23.9886C114.566 23.8951 114.6 23.7869 114.593 23.6779C114.585 23.5335 114.507 23.3976 114.376 23.2996C114.245 23.2017 114.072 23.1495 113.895 23.1544Z" fill="white"/>
<path d="M114.566 21.4765C114.433 21.481 114.305 21.5174 114.198 21.581C114.091 21.6447 114.01 21.7327 113.964 21.834C113.918 21.9354 113.91 22.0454 113.942 22.1503C113.973 22.2552 114.042 22.3502 114.139 22.4234C114.237 22.4965 114.359 22.5444 114.49 22.5612C114.621 22.5779 114.755 22.5626 114.876 22.5173C114.996 22.472 115.097 22.3987 115.166 22.3066C115.236 22.2145 115.27 22.1078 115.264 22C115.262 21.9281 115.241 21.8574 115.204 21.792C115.168 21.7266 115.115 21.6678 115.05 21.619C114.985 21.5703 114.909 21.5326 114.826 21.5081C114.743 21.4837 114.654 21.4729 114.566 21.4765Z" fill="white"/>
<defs>
<radialGradient id="paint0_radial_538_2500" cx="0" cy="0" r="1" gradientUnits="userSpaceOnUse" gradientTransform="translate(9.49629 16.4396) rotate(13.9401) scale(156.551 171.876)">
<stop stop-color="#F06512"/>
<stop offset="0.393406" stop-color="#F9A121"/>
<stop offset="1" stop-color="#F9990E"/>
</radialGradient>
</defs>
</svg>
