<?xml version="1.0" standalone="no"?>
<!DOCTYPE svg PUBLIC "-//W3C//DTD SVG 20010904//EN"
 "http://www.w3.org/TR/2001/REC-SVG-20010904/DTD/svg10.dtd">
<svg version="1.0" xmlns="http://www.w3.org/2000/svg"
 width="208.000000pt" height="72.000000pt" viewBox="0 0 208.000000 72.000000"
 preserveAspectRatio="xMidYMid meet">

<g transform="translate(0.000000,72.000000) scale(0.100000,-0.100000)"
fill="#F80425" stroke="none">
<path d="M1872 645 c-54 -45 -53 -122 0 -155 l30 -18 -53 -11 c-59 -13 -69
-22 -69 -68 0 -46 9 -63 36 -63 23 0 24 -2 24 -78 0 -76 -1 -78 -27 -88 -19
-7 -37 -7 -55 0 l-28 10 0 222 c0 122 -3 229 -6 238 -9 22 -37 20 -129 -12
l-80 -28 0 -54 c0 -49 2 -55 23 -58 40 -6 23 -18 -26 -18 -68 0 -120 -30 -157
-89 -27 -43 -30 -57 -30 -129 0 -64 5 -90 22 -123 40 -74 121 -110 194 -84 21
7 36 8 42 2 6 -6 42 -8 86 -5 42 3 150 7 241 7 l165 2 0 60 c0 58 -1 60 -27
63 l-28 3 0 159 c0 88 -4 161 -9 165 -6 3 -3 21 6 42 41 99 -64 176 -145 108z
m-328 -311 c13 -5 16 -22 16 -79 0 -67 -2 -74 -22 -81 -48 -15 -80 91 -42 144
16 23 23 26 48 16z"/>
<path d="M1141 574 c-30 -38 -28 -99 4 -127 l24 -22 -42 -10 -42 -11 -3 -52
c-3 -47 -1 -52 17 -52 19 0 21 -6 21 -74 0 -69 -2 -74 -22 -78 -13 -2 -33 -2
-45 0 l-23 3 0 214 c0 118 -4 216 -9 219 -5 3 -42 -5 -82 -18 l-74 -24 -3 -51
c-3 -46 -1 -51 17 -51 12 0 21 -4 21 -10 0 -5 -19 -10 -42 -10 -52 0 -101 -28
-123 -69 -81 -158 7 -354 141 -313 21 6 36 7 40 1 3 -6 33 -7 72 -4 37 4 126
8 197 8 l130 2 0 50 c0 42 -3 52 -22 60 -22 9 -23 14 -23 147 0 81 -4 139 -10
143 -7 4 -7 12 0 25 15 28 12 83 -6 108 -23 33 -86 31 -113 -4z m-252 -278 c7
-9 11 -38 9 -73 -3 -51 -6 -58 -25 -61 -39 -6 -54 93 -20 136 12 16 22 15 36
-2z"/>
<path d="M205 491 c-83 -7 -124 -32 -158 -94 -32 -61 -32 -213 0 -274 39 -72
97 -102 170 -88 41 7 115 72 133 116 12 28 11 33 -13 57 l-26 26 -42 -48 c-51
-57 -81 -59 -116 -7 -44 65 -24 193 32 207 31 8 50 -7 76 -58 22 -43 19 -41
55 -28 22 9 29 8 36 -5 5 -8 16 -15 23 -15 12 0 15 -19 15 -96 0 -92 1 -97 29
-125 30 -30 65 -36 106 -20 11 5 25 5 31 0 6 -5 41 -6 77 -2 l67 6 0 47 c0 39
-4 49 -20 53 -19 5 -20 14 -20 131 l0 126 -44 0 c-24 0 -58 -3 -75 -6 -30 -6
-31 -9 -31 -55 0 -38 4 -49 15 -49 24 0 17 -133 -7 -138 -16 -3 -18 9 -20 115
-3 134 0 130 -94 118 -38 -4 -54 -11 -56 -23 -2 -9 -11 17 -19 58 -16 85 -9
81 -124 71z"/>
</g>
</svg>
